G04 #@! TF.FileFunction,Soldermask,Top*
%FSLAX46Y46*%
G04 Gerber Fmt 4.6, Leading zero omitted, Abs format (unit mm)*
G04 Created by KiCad (PCBNEW 4.0.7) date 09/24/17 15:20:56*
%MOMM*%
%LPD*%
G01*
G04 APERTURE LIST*
%ADD10C,0.100000*%
%ADD11R,1.900000X1.650000*%
%ADD12R,2.300000X2.400000*%
%ADD13C,2.300000*%
%ADD14R,1.700000X1.900000*%
%ADD15R,2.127200X2.127200*%
%ADD16O,2.127200X2.127200*%
%ADD17C,4.600000*%
%ADD18C,5.400000*%
%ADD19R,5.400000X4.400000*%
%ADD20C,1.924000*%
%ADD21R,2.127200X2.432000*%
%ADD22O,2.127200X2.432000*%
%ADD23C,2.900000*%
%ADD24O,1.299160X1.901140*%
%ADD25R,1.900000X1.700000*%
%ADD26C,2.398980*%
%ADD27R,2.800000X2.000000*%
%ADD28O,2.800000X2.000000*%
%ADD29R,1.400000X0.800000*%
G04 APERTURE END LIST*
D10*
D11*
X139350000Y-87800000D03*
X141850000Y-87800000D03*
X151950000Y-87800000D03*
X154450000Y-87800000D03*
D12*
X166000000Y-82400000D03*
D13*
X168540000Y-82400000D03*
D12*
X150800000Y-82400000D03*
D13*
X153340000Y-82400000D03*
D12*
X158400000Y-82400000D03*
D13*
X160940000Y-82400000D03*
D14*
X117300000Y-82050000D03*
X117300000Y-79350000D03*
X120000000Y-79350000D03*
X120000000Y-82050000D03*
D15*
X122600000Y-75000000D03*
D16*
X122600000Y-72460000D03*
X125140000Y-75000000D03*
X125140000Y-72460000D03*
X127680000Y-75000000D03*
X127680000Y-72460000D03*
X130220000Y-75000000D03*
X130220000Y-72460000D03*
X132760000Y-75000000D03*
X132760000Y-72460000D03*
X135300000Y-75000000D03*
X135300000Y-72460000D03*
X137840000Y-75000000D03*
X137840000Y-72460000D03*
X140380000Y-75000000D03*
X140380000Y-72460000D03*
X142920000Y-75000000D03*
X142920000Y-72460000D03*
X145460000Y-75000000D03*
X145460000Y-72460000D03*
X148000000Y-75000000D03*
X148000000Y-72460000D03*
X150540000Y-75000000D03*
X150540000Y-72460000D03*
X153080000Y-75000000D03*
X153080000Y-72460000D03*
X155620000Y-75000000D03*
X155620000Y-72460000D03*
X158160000Y-75000000D03*
X158160000Y-72460000D03*
X160700000Y-75000000D03*
X160700000Y-72460000D03*
X163240000Y-75000000D03*
X163240000Y-72460000D03*
X165780000Y-75000000D03*
X165780000Y-72460000D03*
X168320000Y-75000000D03*
X168320000Y-72460000D03*
X170860000Y-75000000D03*
X170860000Y-72460000D03*
D17*
X150000000Y-102550000D03*
X150000000Y-98050000D03*
X143700000Y-102550000D03*
X143700000Y-98050000D03*
X143500000Y-113750000D03*
X143500000Y-109250000D03*
X150100000Y-113750000D03*
X150100000Y-109250000D03*
D18*
X124400000Y-121800000D03*
D19*
X124400000Y-123800000D03*
X124400000Y-123800000D03*
D18*
X154400000Y-121800000D03*
D19*
X154400000Y-123800000D03*
X154400000Y-123800000D03*
D18*
X139400000Y-121800000D03*
D19*
X139400000Y-123800000D03*
X139400000Y-123800000D03*
D18*
X161900000Y-121800000D03*
D19*
X161900000Y-123800000D03*
X161900000Y-123800000D03*
D18*
X146900000Y-121800000D03*
D19*
X146900000Y-123800000D03*
X146900000Y-123800000D03*
D18*
X131900000Y-121800000D03*
D19*
X131900000Y-123800000D03*
X131900000Y-123800000D03*
D20*
X167400000Y-96700000D03*
X169400000Y-96700000D03*
X171400000Y-96700000D03*
X173400000Y-96700000D03*
D21*
X167800000Y-91300000D03*
D22*
X170340000Y-91300000D03*
X172880000Y-91300000D03*
D23*
X119200000Y-89900000D03*
X119200000Y-94900000D03*
X119200000Y-100400000D03*
X119200000Y-105400000D03*
X119200000Y-110900000D03*
X119200000Y-115900000D03*
D18*
X169400000Y-121800000D03*
D19*
X169400000Y-123800000D03*
X169400000Y-123800000D03*
D21*
X166700000Y-103900000D03*
D22*
X169240000Y-103900000D03*
X171780000Y-103900000D03*
X174320000Y-103900000D03*
D24*
X124670000Y-82600000D03*
X125940000Y-82600000D03*
X123400000Y-82600000D03*
X130270000Y-82600000D03*
X131540000Y-82600000D03*
X129000000Y-82600000D03*
D25*
X166050000Y-78100000D03*
X168750000Y-78100000D03*
X150750000Y-78100000D03*
X153450000Y-78100000D03*
X158350000Y-78100000D03*
X161050000Y-78100000D03*
X176250000Y-87900000D03*
X173550000Y-87900000D03*
X123350000Y-85700000D03*
X126050000Y-85700000D03*
X123250000Y-78800000D03*
X125950000Y-78800000D03*
X128950000Y-85700000D03*
X131650000Y-85700000D03*
X128950000Y-78800000D03*
X131650000Y-78800000D03*
D26*
X173349560Y-78248800D03*
X177850440Y-84751200D03*
X177850440Y-78248800D03*
X173349560Y-84751200D03*
D27*
X128500000Y-94200000D03*
D28*
X136120000Y-111980000D03*
X128500000Y-96740000D03*
X136120000Y-109440000D03*
X128500000Y-99280000D03*
X136120000Y-106900000D03*
X128500000Y-101820000D03*
X136120000Y-104360000D03*
X128500000Y-104360000D03*
X136120000Y-101820000D03*
X128500000Y-106900000D03*
X136120000Y-99280000D03*
X128500000Y-109440000D03*
X136120000Y-96740000D03*
X128500000Y-111980000D03*
X136120000Y-94200000D03*
D21*
X167800000Y-109200000D03*
D22*
X170340000Y-109200000D03*
X172880000Y-109200000D03*
D21*
X167900000Y-114800000D03*
D22*
X170440000Y-114800000D03*
X172980000Y-114800000D03*
D29*
X144000000Y-87575000D03*
X144000000Y-88225000D03*
X144000000Y-88875000D03*
X144000000Y-89525000D03*
X144000000Y-90175000D03*
X144000000Y-90825000D03*
X144000000Y-91475000D03*
X144000000Y-92125000D03*
X144000000Y-92775000D03*
X144000000Y-93425000D03*
X149800000Y-93425000D03*
X149800000Y-92775000D03*
X149800000Y-92125000D03*
X149800000Y-91475000D03*
X149800000Y-90825000D03*
X149800000Y-90175000D03*
X149800000Y-89525000D03*
X149800000Y-88875000D03*
X149800000Y-88225000D03*
X149800000Y-87575000D03*
M02*
