M48
;DRILL file {KiCad 4.0.7} date 09/24/17 15:20:57
;FORMAT={-:-/ absolute / inch / decimal}
FMAT,2
INCH,TZ
T1C0.016
T2C0.024
T3C0.030
T4C0.031
T5C0.039
T6C0.040
T7C0.051
T8C0.100
T9C0.157
%
G90
G05
M72
T1
X4.8543Y-3.4331
X5.0709Y-3.437
X5.2874Y-3.0472
X5.4961Y-3.5394
X5.5945Y-3.4055
X5.8673Y-3.413
X5.8976Y-3.7205
X6.0748Y-3.3898
X6.4331Y-4.6142
T2
X4.8583Y-3.252
X4.9083Y-3.252
X4.9583Y-3.252
X5.0787Y-3.252
X5.1287Y-3.252
X5.1787Y-3.252
T3
X6.5906Y-3.8071
X6.6693Y-3.8071
X6.748Y-3.8071
X6.8268Y-3.8071
T4
X5.0591Y-3.7087
X5.0591Y-3.8087
X5.0591Y-3.9087
X5.0591Y-4.0087
X5.0591Y-4.1087
X5.0591Y-4.2087
X5.0591Y-4.3087
X5.0591Y-4.4087
X5.3591Y-3.7087
X5.3591Y-3.8087
X5.3591Y-3.9087
X5.3591Y-4.0087
X5.3591Y-4.1087
X5.3591Y-4.2087
X5.3591Y-4.3087
X5.3591Y-4.4087
T5
X5.937Y-3.2441
X6.037Y-3.2441
X6.2362Y-3.2441
X6.3362Y-3.2441
X6.5354Y-3.2441
X6.6354Y-3.2441
X6.8248Y-3.0807
X6.8248Y-3.3367
X7.002Y-3.0807
X7.002Y-3.3367
T6
X4.8268Y-2.8528
X4.8268Y-2.9528
X4.9268Y-2.8528
X4.9268Y-2.9528
X5.0268Y-2.8528
X5.0268Y-2.9528
X5.1268Y-2.8528
X5.1268Y-2.9528
X5.2268Y-2.8528
X5.2268Y-2.9528
X5.3268Y-2.8528
X5.3268Y-2.9528
X5.4268Y-2.8528
X5.4268Y-2.9528
X5.5268Y-2.8528
X5.5268Y-2.9528
X5.6268Y-2.8528
X5.6268Y-2.9528
X5.7268Y-2.8528
X5.7268Y-2.9528
X5.8268Y-2.8528
X5.8268Y-2.9528
X5.9268Y-2.8528
X5.9268Y-2.9528
X6.0268Y-2.8528
X6.0268Y-2.9528
X6.1268Y-2.8528
X6.1268Y-2.9528
X6.2268Y-2.8528
X6.2268Y-2.9528
X6.3268Y-2.8528
X6.3268Y-2.9528
X6.4268Y-2.8528
X6.4268Y-2.9528
X6.5268Y-2.8528
X6.5268Y-2.9528
X6.563Y-4.0906
X6.6063Y-3.5945
X6.6063Y-4.2992
X6.6102Y-4.5197
X6.6268Y-2.8528
X6.6268Y-2.9528
X6.663Y-4.0906
X6.7063Y-3.5945
X6.7063Y-4.2992
X6.7102Y-4.5197
X6.7268Y-2.8528
X6.7268Y-2.9528
X6.763Y-4.0906
X6.8063Y-3.5945
X6.8063Y-4.2992
X6.8102Y-4.5197
X6.863Y-4.0906
T7
X4.6929Y-3.5394
X4.6929Y-3.7362
X4.6929Y-3.9528
X4.6929Y-4.1496
X4.6929Y-4.3661
X4.6929Y-4.563
T8
X5.6496Y-4.3012
X5.6496Y-4.4783
X5.6575Y-3.8602
X5.6575Y-4.0374
X5.9055Y-3.8602
X5.9055Y-4.0374
X5.9094Y-4.3012
X5.9094Y-4.4783
T9
X4.8976Y-4.7953
X5.1929Y-4.7953
X5.4882Y-4.7953
X5.7835Y-4.7953
X6.0787Y-4.7953
X6.374Y-4.7953
X6.6693Y-4.7953
T0
M30
