G04 #@! TF.FileFunction,Legend,Top*
%FSLAX46Y46*%
G04 Gerber Fmt 4.6, Leading zero omitted, Abs format (unit mm)*
G04 Created by KiCad (PCBNEW 4.0.7) date 09/24/17 15:20:56*
%MOMM*%
%LPD*%
G01*
G04 APERTURE LIST*
%ADD10C,0.100000*%
%ADD11C,0.300000*%
%ADD12C,0.150000*%
%ADD13C,0.381000*%
%ADD14C,0.304800*%
%ADD15C,2.540000*%
%ADD16C,0.120000*%
G04 APERTURE END LIST*
D10*
X177692857Y-118957143D02*
X177692857Y-118457143D01*
X178478571Y-118242857D02*
X178478571Y-118957143D01*
X176978571Y-118957143D01*
X176978571Y-118242857D01*
X178478571Y-116957143D02*
X177692857Y-116957143D01*
X177550000Y-117028572D01*
X177478571Y-117171429D01*
X177478571Y-117457143D01*
X177550000Y-117600000D01*
X178407143Y-116957143D02*
X178478571Y-117100000D01*
X178478571Y-117457143D01*
X178407143Y-117600000D01*
X178264286Y-117671429D01*
X178121429Y-117671429D01*
X177978571Y-117600000D01*
X177907143Y-117457143D01*
X177907143Y-117100000D01*
X177835714Y-116957143D01*
X178407143Y-116314286D02*
X178478571Y-116171429D01*
X178478571Y-115885714D01*
X178407143Y-115742857D01*
X178264286Y-115671429D01*
X178192857Y-115671429D01*
X178050000Y-115742857D01*
X177978571Y-115885714D01*
X177978571Y-116100000D01*
X177907143Y-116242857D01*
X177764286Y-116314286D01*
X177692857Y-116314286D01*
X177550000Y-116242857D01*
X177478571Y-116100000D01*
X177478571Y-115885714D01*
X177550000Y-115742857D01*
X177478571Y-115171428D02*
X178478571Y-114814285D01*
X177478571Y-114457143D02*
X178478571Y-114814285D01*
X178835714Y-114957143D01*
X178907143Y-115028571D01*
X178978571Y-115171428D01*
X178478571Y-113171428D02*
X178478571Y-113885714D01*
X176978571Y-113885714D01*
X178478571Y-112028571D02*
X177692857Y-112028571D01*
X177550000Y-112100000D01*
X177478571Y-112242857D01*
X177478571Y-112528571D01*
X177550000Y-112671428D01*
X178407143Y-112028571D02*
X178478571Y-112171428D01*
X178478571Y-112528571D01*
X178407143Y-112671428D01*
X178264286Y-112742857D01*
X178121429Y-112742857D01*
X177978571Y-112671428D01*
X177907143Y-112528571D01*
X177907143Y-112171428D01*
X177835714Y-112028571D01*
X178478571Y-111314285D02*
X176978571Y-111314285D01*
X177550000Y-111314285D02*
X177478571Y-111171428D01*
X177478571Y-110885714D01*
X177550000Y-110742857D01*
X177621429Y-110671428D01*
X177764286Y-110599999D01*
X178192857Y-110599999D01*
X178335714Y-110671428D01*
X178407143Y-110742857D01*
X178478571Y-110885714D01*
X178478571Y-111171428D01*
X178407143Y-111314285D01*
X178407143Y-110028571D02*
X178478571Y-109885714D01*
X178478571Y-109599999D01*
X178407143Y-109457142D01*
X178264286Y-109385714D01*
X178192857Y-109385714D01*
X178050000Y-109457142D01*
X177978571Y-109599999D01*
X177978571Y-109814285D01*
X177907143Y-109957142D01*
X177764286Y-110028571D01*
X177692857Y-110028571D01*
X177550000Y-109957142D01*
X177478571Y-109814285D01*
X177478571Y-109599999D01*
X177550000Y-109457142D01*
X177478571Y-108099999D02*
X178478571Y-108099999D01*
X176907143Y-108457142D02*
X177978571Y-108814285D01*
X177978571Y-107885713D01*
X178478571Y-107314285D02*
X176978571Y-107314285D01*
X178478571Y-106457142D02*
X177621429Y-107099999D01*
X176978571Y-106457142D02*
X177835714Y-107314285D01*
X178478571Y-105814285D02*
X177478571Y-105814285D01*
X176978571Y-105814285D02*
X177050000Y-105885714D01*
X177121429Y-105814285D01*
X177050000Y-105742857D01*
X176978571Y-105814285D01*
X177121429Y-105814285D01*
X178478571Y-104457142D02*
X176978571Y-104457142D01*
X178407143Y-104457142D02*
X178478571Y-104599999D01*
X178478571Y-104885713D01*
X178407143Y-105028571D01*
X178335714Y-105099999D01*
X178192857Y-105171428D01*
X177764286Y-105171428D01*
X177621429Y-105099999D01*
X177550000Y-105028571D01*
X177478571Y-104885713D01*
X177478571Y-104599999D01*
X177550000Y-104457142D01*
X178407143Y-103814285D02*
X178478571Y-103671428D01*
X178478571Y-103385713D01*
X178407143Y-103242856D01*
X178264286Y-103171428D01*
X178192857Y-103171428D01*
X178050000Y-103242856D01*
X177978571Y-103385713D01*
X177978571Y-103599999D01*
X177907143Y-103742856D01*
X177764286Y-103814285D01*
X177692857Y-103814285D01*
X177550000Y-103742856D01*
X177478571Y-103599999D01*
X177478571Y-103385713D01*
X177550000Y-103242856D01*
X166119162Y-120940482D02*
X165058502Y-119879822D01*
X165765609Y-119172715D02*
X165967639Y-118970685D01*
X166119163Y-118920177D01*
X166321193Y-118920177D01*
X166573731Y-119071700D01*
X166927284Y-119425254D01*
X167078808Y-119677792D01*
X167078808Y-119879822D01*
X167028299Y-120031345D01*
X166826269Y-120233376D01*
X166674746Y-120283883D01*
X166472716Y-120283883D01*
X166220177Y-120132360D01*
X165866624Y-119778807D01*
X165715101Y-119526269D01*
X165715101Y-119324238D01*
X165765609Y-119172715D01*
X167179823Y-117758501D02*
X166674746Y-118263578D01*
X167129315Y-118819162D01*
X167129316Y-118718147D01*
X167179823Y-118566624D01*
X167432361Y-118314086D01*
X167583884Y-118263578D01*
X167684899Y-118263578D01*
X167836422Y-118314086D01*
X168088960Y-118566624D01*
X168139468Y-118718146D01*
X168139468Y-118819162D01*
X168088960Y-118970684D01*
X167836422Y-119223223D01*
X167684899Y-119273731D01*
X167583883Y-119273731D01*
X157861548Y-119677792D02*
X157710025Y-119728299D01*
X157558502Y-119879822D01*
X157457487Y-120081852D01*
X157457487Y-120283883D01*
X157507995Y-120435406D01*
X157659518Y-120687945D01*
X157811040Y-120839467D01*
X158063579Y-120990990D01*
X158215101Y-121041498D01*
X158417132Y-121041497D01*
X158619162Y-120940482D01*
X158720177Y-120839467D01*
X158821193Y-120637437D01*
X158821193Y-120536421D01*
X158467640Y-120182868D01*
X158265609Y-120384899D01*
X159376777Y-120182868D02*
X158316117Y-119122207D01*
X159982868Y-119576776D01*
X158922208Y-118516116D01*
X160487945Y-119071700D02*
X159427285Y-118011039D01*
X159679823Y-117758501D01*
X159881853Y-117657487D01*
X160083884Y-117657486D01*
X160235407Y-117707994D01*
X160487946Y-117859517D01*
X160639468Y-118011039D01*
X160790991Y-118263578D01*
X160841499Y-118415101D01*
X160841498Y-118617132D01*
X160740483Y-118819161D01*
X160487945Y-119071700D01*
X150261548Y-119677792D02*
X150110025Y-119728299D01*
X149958502Y-119879822D01*
X149857487Y-120081852D01*
X149857487Y-120283883D01*
X149907995Y-120435406D01*
X150059518Y-120687945D01*
X150211040Y-120839467D01*
X150463579Y-120990990D01*
X150615101Y-121041498D01*
X150817132Y-121041497D01*
X151019162Y-120940482D01*
X151120177Y-120839467D01*
X151221193Y-120637437D01*
X151221193Y-120536421D01*
X150867640Y-120182868D01*
X150665609Y-120384899D01*
X151776777Y-120182868D02*
X150716117Y-119122207D01*
X152382868Y-119576776D01*
X151322208Y-118516116D01*
X152887945Y-119071700D02*
X151827285Y-118011039D01*
X152079823Y-117758501D01*
X152281853Y-117657487D01*
X152483884Y-117657486D01*
X152635407Y-117707994D01*
X152887946Y-117859517D01*
X153039468Y-118011039D01*
X153190991Y-118263578D01*
X153241499Y-118415101D01*
X153241498Y-118617132D01*
X153140483Y-118819161D01*
X152887945Y-119071700D01*
X135005964Y-119932360D02*
X135662563Y-119275761D01*
X135713071Y-120033376D01*
X135864594Y-119881852D01*
X136016117Y-119831345D01*
X136117132Y-119831345D01*
X136268655Y-119881852D01*
X136521193Y-120134391D01*
X136571701Y-120285913D01*
X136571701Y-120386929D01*
X136521193Y-120538451D01*
X136218147Y-120841497D01*
X136066624Y-120892005D01*
X135965609Y-120892005D01*
X135965609Y-118972715D02*
X137379822Y-119679822D01*
X136672715Y-118265609D01*
X136925254Y-118013070D02*
X137581852Y-117356472D01*
X137632360Y-118114086D01*
X137783883Y-117962563D01*
X137935407Y-117912056D01*
X138036422Y-117912055D01*
X138187944Y-117962563D01*
X138440482Y-118215101D01*
X138490990Y-118366624D01*
X138490990Y-118467640D01*
X138440482Y-118619162D01*
X138137436Y-118922208D01*
X137985914Y-118972716D01*
X137884899Y-118972715D01*
X143366624Y-121092005D02*
X143568655Y-120990990D01*
X143821193Y-120738451D01*
X143871701Y-120586929D01*
X143871701Y-120485913D01*
X143821193Y-120334391D01*
X143720178Y-120233376D01*
X143568655Y-120182868D01*
X143467640Y-120182868D01*
X143316117Y-120233376D01*
X143063579Y-120384898D01*
X142912056Y-120435407D01*
X142811041Y-120435406D01*
X142659518Y-120384899D01*
X142558503Y-120283883D01*
X142507995Y-120132360D01*
X142507995Y-120031345D01*
X142558503Y-119879821D01*
X142811040Y-119627284D01*
X143013071Y-119526269D01*
X144982868Y-119374746D02*
X144982868Y-119475762D01*
X144881852Y-119677792D01*
X144780837Y-119778807D01*
X144578808Y-119879822D01*
X144376777Y-119879823D01*
X144225254Y-119829315D01*
X143972715Y-119677792D01*
X143821193Y-119526269D01*
X143669670Y-119273731D01*
X143619162Y-119122208D01*
X143619163Y-118920177D01*
X143720177Y-118718147D01*
X143821192Y-118617132D01*
X144023223Y-118516117D01*
X144124239Y-118516117D01*
X146043528Y-118516116D02*
X145538452Y-119021192D01*
X144477792Y-117960532D01*
X128141371Y-121217259D02*
X128343401Y-121116243D01*
X128595939Y-120863705D01*
X128646447Y-120712183D01*
X128646447Y-120611167D01*
X128595939Y-120459644D01*
X128494924Y-120358629D01*
X128343402Y-120308121D01*
X128242386Y-120308121D01*
X128090864Y-120358629D01*
X127838325Y-120510152D01*
X127686802Y-120560660D01*
X127585787Y-120560659D01*
X127434264Y-120510152D01*
X127333249Y-120409137D01*
X127282742Y-120257614D01*
X127282741Y-120156599D01*
X127333249Y-120005075D01*
X127585786Y-119752538D01*
X127787817Y-119651522D01*
X129252538Y-120207106D02*
X128191878Y-119146446D01*
X128444416Y-118893908D01*
X128646447Y-118792893D01*
X128848478Y-118792893D01*
X129000000Y-118843400D01*
X129252539Y-118994924D01*
X129404061Y-119146446D01*
X129555584Y-119398985D01*
X129606092Y-119550507D01*
X129606092Y-119752538D01*
X129505076Y-119954568D01*
X129252538Y-120207106D01*
X129959645Y-118893908D02*
X130464721Y-118388832D01*
X130161675Y-119297969D02*
X129454569Y-117883755D01*
X130868782Y-118590862D01*
X120017132Y-119821192D02*
X119512056Y-120326268D01*
X119966624Y-120881852D01*
X119966625Y-120780837D01*
X120017132Y-120629314D01*
X120269671Y-120376776D01*
X120421194Y-120326269D01*
X120522209Y-120326268D01*
X120673731Y-120376776D01*
X120926269Y-120629314D01*
X120976777Y-120780837D01*
X120976777Y-120881852D01*
X120926269Y-121033375D01*
X120673731Y-121285913D01*
X120522209Y-121336421D01*
X120421193Y-121336421D01*
X120370685Y-119467639D02*
X121784899Y-120174746D01*
X121077792Y-118760532D01*
D11*
X125050000Y-106742857D02*
X124978571Y-106885714D01*
X124978571Y-107100000D01*
X125050000Y-107314285D01*
X125192857Y-107457143D01*
X125335714Y-107528571D01*
X125621429Y-107600000D01*
X125835714Y-107600000D01*
X126121429Y-107528571D01*
X126264286Y-107457143D01*
X126407143Y-107314285D01*
X126478571Y-107100000D01*
X126478571Y-106957143D01*
X126407143Y-106742857D01*
X126335714Y-106671428D01*
X125835714Y-106671428D01*
X125835714Y-106957143D01*
X126478571Y-106028571D02*
X124978571Y-106028571D01*
X126478571Y-105171428D01*
X124978571Y-105171428D01*
X126478571Y-104457142D02*
X124978571Y-104457142D01*
X124978571Y-104099999D01*
X125050000Y-103885714D01*
X125192857Y-103742856D01*
X125335714Y-103671428D01*
X125621429Y-103599999D01*
X125835714Y-103599999D01*
X126121429Y-103671428D01*
X126264286Y-103742856D01*
X126407143Y-103885714D01*
X126478571Y-104099999D01*
X126478571Y-104457142D01*
D12*
X141100000Y-86950000D02*
X140100000Y-86950000D01*
X140100000Y-88650000D02*
X141100000Y-88650000D01*
X153700000Y-86950000D02*
X152700000Y-86950000D01*
X152700000Y-88650000D02*
X153700000Y-88650000D01*
X164785112Y-83924904D02*
G75*
G03X164770000Y-80900000I2484888J1524904D01*
G01*
X164770000Y-83900000D02*
X164770000Y-80900000D01*
X169787936Y-82400000D02*
G75*
G03X169787936Y-82400000I-2517936J0D01*
G01*
X149585112Y-83924904D02*
G75*
G03X149570000Y-80900000I2484888J1524904D01*
G01*
X149570000Y-83900000D02*
X149570000Y-80900000D01*
X154587936Y-82400000D02*
G75*
G03X154587936Y-82400000I-2517936J0D01*
G01*
X157185112Y-83924904D02*
G75*
G03X157170000Y-80900000I2484888J1524904D01*
G01*
X157170000Y-83900000D02*
X157170000Y-80900000D01*
X162187936Y-82400000D02*
G75*
G03X162187936Y-82400000I-2517936J0D01*
G01*
X118175000Y-80100000D02*
X118175000Y-81300000D01*
X116425000Y-81300000D02*
X116425000Y-80100000D01*
X119125000Y-81300000D02*
X119125000Y-80100000D01*
X120875000Y-80100000D02*
X120875000Y-81300000D01*
X172130000Y-71190000D02*
X121330000Y-71190000D01*
X123870000Y-76270000D02*
X172130000Y-76270000D01*
X172130000Y-71190000D02*
X172130000Y-76270000D01*
X121330000Y-71190000D02*
X121330000Y-73730000D01*
X121050000Y-75000000D02*
X121050000Y-76550000D01*
X121330000Y-73730000D02*
X123870000Y-73730000D01*
X123870000Y-73730000D02*
X123870000Y-76270000D01*
X121050000Y-76550000D02*
X122600000Y-76550000D01*
X147200000Y-98000000D02*
X147200000Y-102500000D01*
X152800000Y-98000000D02*
X152800000Y-102500000D01*
X152800000Y-98000000D02*
G75*
G03X150000000Y-95200000I-2800000J0D01*
G01*
X150000000Y-95200000D02*
G75*
G03X147200000Y-98000000I0J-2800000D01*
G01*
X147200000Y-102500000D02*
G75*
G03X150000000Y-105300000I2800000J0D01*
G01*
X150000000Y-105300000D02*
G75*
G03X152800000Y-102500000I0J2800000D01*
G01*
X140900000Y-98000000D02*
X140900000Y-102500000D01*
X146500000Y-98000000D02*
X146500000Y-102500000D01*
X146500000Y-98000000D02*
G75*
G03X143700000Y-95200000I-2800000J0D01*
G01*
X143700000Y-95200000D02*
G75*
G03X140900000Y-98000000I0J-2800000D01*
G01*
X140900000Y-102500000D02*
G75*
G03X143700000Y-105300000I2800000J0D01*
G01*
X143700000Y-105300000D02*
G75*
G03X146500000Y-102500000I0J2800000D01*
G01*
X140700000Y-109200000D02*
X140700000Y-113700000D01*
X146300000Y-109200000D02*
X146300000Y-113700000D01*
X146300000Y-109200000D02*
G75*
G03X143500000Y-106400000I-2800000J0D01*
G01*
X143500000Y-106400000D02*
G75*
G03X140700000Y-109200000I0J-2800000D01*
G01*
X140700000Y-113700000D02*
G75*
G03X143500000Y-116500000I2800000J0D01*
G01*
X143500000Y-116500000D02*
G75*
G03X146300000Y-113700000I0J2800000D01*
G01*
X147300000Y-109200000D02*
X147300000Y-113700000D01*
X152900000Y-109200000D02*
X152900000Y-113700000D01*
X152900000Y-109200000D02*
G75*
G03X150100000Y-106400000I-2800000J0D01*
G01*
X150100000Y-106400000D02*
G75*
G03X147300000Y-109200000I0J-2800000D01*
G01*
X147300000Y-113700000D02*
G75*
G03X150100000Y-116500000I2800000J0D01*
G01*
X150100000Y-116500000D02*
G75*
G03X152900000Y-113700000I0J2800000D01*
G01*
X168600000Y-94400000D02*
X167400000Y-94400000D01*
X168500000Y-99000000D02*
X167600000Y-99000000D01*
X167550000Y-99650000D02*
X167550000Y-99000000D01*
X168450000Y-99000000D02*
X173250000Y-99000000D01*
X175550000Y-99650000D02*
X175550000Y-99800000D01*
X175550000Y-99800000D02*
X175400000Y-99800000D01*
X173400000Y-99800000D02*
X173250000Y-99800000D01*
X175550000Y-94700000D02*
X175550000Y-94550000D01*
X175550000Y-94550000D02*
X175550000Y-94400000D01*
X175550000Y-94400000D02*
X170400000Y-94400000D01*
X165400000Y-94400000D02*
X167500000Y-94400000D01*
X167550000Y-99650000D02*
X167550000Y-99800000D01*
X167550000Y-99800000D02*
X167400000Y-99800000D01*
X165400000Y-99800000D02*
X165250000Y-99800000D01*
X165250000Y-99800000D02*
X165250000Y-99650000D01*
X165250000Y-94700000D02*
X165250000Y-94400000D01*
X165250000Y-94400000D02*
X165350000Y-94400000D01*
X165350000Y-94400000D02*
X165400000Y-94400000D01*
X168650000Y-99000000D02*
X168650000Y-99800000D01*
X168650000Y-99800000D02*
X172150000Y-99800000D01*
X172150000Y-99800000D02*
X172150000Y-99000000D01*
X168450000Y-94400000D02*
X170400000Y-94400000D01*
X165250000Y-99650000D02*
X165250000Y-94700000D01*
X175550000Y-99650000D02*
X175550000Y-94700000D01*
X173250000Y-99800000D02*
X173250000Y-99000000D01*
X165400000Y-99800000D02*
X167400000Y-99800000D01*
X173400000Y-99800000D02*
X175400000Y-99800000D01*
X169070000Y-92570000D02*
X174150000Y-92570000D01*
X174150000Y-92570000D02*
X174150000Y-90030000D01*
X174150000Y-90030000D02*
X169070000Y-90030000D01*
X166250000Y-89750000D02*
X167800000Y-89750000D01*
X169070000Y-90030000D02*
X169070000Y-92570000D01*
X167800000Y-92850000D02*
X166250000Y-92850000D01*
X166250000Y-92850000D02*
X166250000Y-89750000D01*
D13*
X115100000Y-92400000D02*
X114600000Y-92400000D01*
X121100000Y-94900000D02*
G75*
G03X121100000Y-94900000I-2000000J0D01*
G01*
X121100000Y-89900000D02*
G75*
G03X121100000Y-89900000I-2000000J0D01*
G01*
X116600000Y-87400000D02*
X116600000Y-97400000D01*
X121500000Y-87400000D02*
X121500000Y-97400000D01*
X115100000Y-87400000D02*
X115100000Y-97400000D01*
X114600000Y-87400000D02*
X114600000Y-97400000D01*
X114600000Y-97400000D02*
X124400000Y-97400000D01*
X124400000Y-97400000D02*
X124400000Y-87400000D01*
X124400000Y-87400000D02*
X114600000Y-87400000D01*
X115100000Y-102900000D02*
X114600000Y-102900000D01*
X121100000Y-105400000D02*
G75*
G03X121100000Y-105400000I-2000000J0D01*
G01*
X121100000Y-100400000D02*
G75*
G03X121100000Y-100400000I-2000000J0D01*
G01*
X116600000Y-97900000D02*
X116600000Y-107900000D01*
X121500000Y-97900000D02*
X121500000Y-107900000D01*
X115100000Y-97900000D02*
X115100000Y-107900000D01*
X114600000Y-97900000D02*
X114600000Y-107900000D01*
X114600000Y-107900000D02*
X124400000Y-107900000D01*
X124400000Y-107900000D02*
X124400000Y-97900000D01*
X124400000Y-97900000D02*
X114600000Y-97900000D01*
X115100000Y-113400000D02*
X114600000Y-113400000D01*
X121100000Y-115900000D02*
G75*
G03X121100000Y-115900000I-2000000J0D01*
G01*
X121100000Y-110900000D02*
G75*
G03X121100000Y-110900000I-2000000J0D01*
G01*
X116600000Y-108400000D02*
X116600000Y-118400000D01*
X121500000Y-108400000D02*
X121500000Y-118400000D01*
X115100000Y-108400000D02*
X115100000Y-118400000D01*
X114600000Y-108400000D02*
X114600000Y-118400000D01*
X114600000Y-118400000D02*
X124400000Y-118400000D01*
X124400000Y-118400000D02*
X124400000Y-108400000D01*
X124400000Y-108400000D02*
X114600000Y-108400000D01*
D12*
X167970000Y-105170000D02*
X175590000Y-105170000D01*
X167970000Y-102630000D02*
X175590000Y-102630000D01*
X165150000Y-102350000D02*
X166700000Y-102350000D01*
X175590000Y-105170000D02*
X175590000Y-102630000D01*
X167970000Y-102630000D02*
X167970000Y-105170000D01*
X166700000Y-105450000D02*
X165150000Y-105450000D01*
X165150000Y-105450000D02*
X165150000Y-102350000D01*
X122970000Y-84300000D02*
X126370000Y-84300000D01*
X122972944Y-84297056D02*
G75*
G02X124670000Y-80200000I1697056J1697056D01*
G01*
X126367056Y-84297056D02*
G75*
G03X124670000Y-80200000I-1697056J1697056D01*
G01*
X128570000Y-84300000D02*
X131970000Y-84300000D01*
X128572944Y-84297056D02*
G75*
G02X130270000Y-80200000I1697056J1697056D01*
G01*
X131967056Y-84297056D02*
G75*
G03X130270000Y-80200000I-1697056J1697056D01*
G01*
X168000000Y-78975000D02*
X166800000Y-78975000D01*
X166800000Y-77225000D02*
X168000000Y-77225000D01*
X152700000Y-78975000D02*
X151500000Y-78975000D01*
X151500000Y-77225000D02*
X152700000Y-77225000D01*
X160300000Y-78975000D02*
X159100000Y-78975000D01*
X159100000Y-77225000D02*
X160300000Y-77225000D01*
X174300000Y-87025000D02*
X175500000Y-87025000D01*
X175500000Y-88775000D02*
X174300000Y-88775000D01*
X125300000Y-86575000D02*
X124100000Y-86575000D01*
X124100000Y-84825000D02*
X125300000Y-84825000D01*
X125200000Y-79675000D02*
X124000000Y-79675000D01*
X124000000Y-77925000D02*
X125200000Y-77925000D01*
X130900000Y-86575000D02*
X129700000Y-86575000D01*
X129700000Y-84825000D02*
X130900000Y-84825000D01*
X130900000Y-79675000D02*
X129700000Y-79675000D01*
X129700000Y-77925000D02*
X130900000Y-77925000D01*
D14*
X172552000Y-78452000D02*
X178648000Y-78452000D01*
X178648000Y-78452000D02*
X178648000Y-84548000D01*
X178648000Y-84548000D02*
X172552000Y-84548000D01*
X172552000Y-84548000D02*
X172552000Y-78452000D01*
D15*
X176403219Y-81500000D02*
G75*
G03X176403219Y-81500000I-803219J0D01*
G01*
D16*
X133310000Y-92810000D02*
G75*
G02X131310000Y-92810000I-1000000J0D01*
G01*
X131310000Y-92810000D02*
X129940000Y-92810000D01*
X129940000Y-92810000D02*
X129940000Y-113370000D01*
X129940000Y-113370000D02*
X134680000Y-113370000D01*
X134680000Y-113370000D02*
X134680000Y-92810000D01*
X134680000Y-92810000D02*
X133310000Y-92810000D01*
D12*
X169070000Y-110470000D02*
X174150000Y-110470000D01*
X174150000Y-110470000D02*
X174150000Y-107930000D01*
X174150000Y-107930000D02*
X169070000Y-107930000D01*
X166250000Y-107650000D02*
X167800000Y-107650000D01*
X169070000Y-107930000D02*
X169070000Y-110470000D01*
X167800000Y-110750000D02*
X166250000Y-110750000D01*
X166250000Y-110750000D02*
X166250000Y-107650000D01*
X169170000Y-116070000D02*
X174250000Y-116070000D01*
X174250000Y-116070000D02*
X174250000Y-113530000D01*
X174250000Y-113530000D02*
X169170000Y-113530000D01*
X166350000Y-113250000D02*
X167900000Y-113250000D01*
X169170000Y-113530000D02*
X169170000Y-116070000D01*
X167900000Y-116350000D02*
X166350000Y-116350000D01*
X166350000Y-116350000D02*
X166350000Y-113250000D01*
X144575000Y-87125000D02*
X144575000Y-87150000D01*
X149225000Y-87125000D02*
X149225000Y-87150000D01*
X149225000Y-93875000D02*
X149225000Y-93850000D01*
X144575000Y-93875000D02*
X144575000Y-93850000D01*
X144575000Y-87125000D02*
X149225000Y-87125000D01*
X144575000Y-93875000D02*
X149225000Y-93875000D01*
X144575000Y-87150000D02*
X143500000Y-87150000D01*
X140433334Y-89957143D02*
X140385715Y-90004762D01*
X140242858Y-90052381D01*
X140147620Y-90052381D01*
X140004762Y-90004762D01*
X139909524Y-89909524D01*
X139861905Y-89814286D01*
X139814286Y-89623810D01*
X139814286Y-89480952D01*
X139861905Y-89290476D01*
X139909524Y-89195238D01*
X140004762Y-89100000D01*
X140147620Y-89052381D01*
X140242858Y-89052381D01*
X140385715Y-89100000D01*
X140433334Y-89147619D01*
X141385715Y-90052381D02*
X140814286Y-90052381D01*
X141100000Y-90052381D02*
X141100000Y-89052381D01*
X141004762Y-89195238D01*
X140909524Y-89290476D01*
X140814286Y-89338095D01*
X153033334Y-89957143D02*
X152985715Y-90004762D01*
X152842858Y-90052381D01*
X152747620Y-90052381D01*
X152604762Y-90004762D01*
X152509524Y-89909524D01*
X152461905Y-89814286D01*
X152414286Y-89623810D01*
X152414286Y-89480952D01*
X152461905Y-89290476D01*
X152509524Y-89195238D01*
X152604762Y-89100000D01*
X152747620Y-89052381D01*
X152842858Y-89052381D01*
X152985715Y-89100000D01*
X153033334Y-89147619D01*
X153414286Y-89147619D02*
X153461905Y-89100000D01*
X153557143Y-89052381D01*
X153795239Y-89052381D01*
X153890477Y-89100000D01*
X153938096Y-89147619D01*
X153985715Y-89242857D01*
X153985715Y-89338095D01*
X153938096Y-89480952D01*
X153366667Y-90052381D01*
X153985715Y-90052381D01*
X164352381Y-83138095D02*
X163352381Y-83138095D01*
X163352381Y-82900000D01*
X163400000Y-82757142D01*
X163495238Y-82661904D01*
X163590476Y-82614285D01*
X163780952Y-82566666D01*
X163923810Y-82566666D01*
X164114286Y-82614285D01*
X164209524Y-82661904D01*
X164304762Y-82757142D01*
X164352381Y-82900000D01*
X164352381Y-83138095D01*
X164352381Y-81614285D02*
X164352381Y-82185714D01*
X164352381Y-81900000D02*
X163352381Y-81900000D01*
X163495238Y-81995238D01*
X163590476Y-82090476D01*
X163638095Y-82185714D01*
X149152381Y-83138095D02*
X148152381Y-83138095D01*
X148152381Y-82900000D01*
X148200000Y-82757142D01*
X148295238Y-82661904D01*
X148390476Y-82614285D01*
X148580952Y-82566666D01*
X148723810Y-82566666D01*
X148914286Y-82614285D01*
X149009524Y-82661904D01*
X149104762Y-82757142D01*
X149152381Y-82900000D01*
X149152381Y-83138095D01*
X148247619Y-82185714D02*
X148200000Y-82138095D01*
X148152381Y-82042857D01*
X148152381Y-81804761D01*
X148200000Y-81709523D01*
X148247619Y-81661904D01*
X148342857Y-81614285D01*
X148438095Y-81614285D01*
X148580952Y-81661904D01*
X149152381Y-82233333D01*
X149152381Y-81614285D01*
X156752381Y-83138095D02*
X155752381Y-83138095D01*
X155752381Y-82900000D01*
X155800000Y-82757142D01*
X155895238Y-82661904D01*
X155990476Y-82614285D01*
X156180952Y-82566666D01*
X156323810Y-82566666D01*
X156514286Y-82614285D01*
X156609524Y-82661904D01*
X156704762Y-82757142D01*
X156752381Y-82900000D01*
X156752381Y-83138095D01*
X155752381Y-82233333D02*
X155752381Y-81614285D01*
X156133333Y-81947619D01*
X156133333Y-81804761D01*
X156180952Y-81709523D01*
X156228571Y-81661904D01*
X156323810Y-81614285D01*
X156561905Y-81614285D01*
X156657143Y-81661904D01*
X156704762Y-81709523D01*
X156752381Y-81804761D01*
X156752381Y-82090476D01*
X156704762Y-82185714D01*
X156657143Y-82233333D01*
X115628571Y-81033333D02*
X115628571Y-81366667D01*
X116152381Y-81366667D02*
X115152381Y-81366667D01*
X115152381Y-80890476D01*
X116152381Y-79985714D02*
X116152381Y-80557143D01*
X116152381Y-80271429D02*
X115152381Y-80271429D01*
X115295238Y-80366667D01*
X115390476Y-80461905D01*
X115438095Y-80557143D01*
X121528571Y-81033333D02*
X121528571Y-81366667D01*
X122052381Y-81366667D02*
X121052381Y-81366667D01*
X121052381Y-80890476D01*
X121147619Y-80557143D02*
X121100000Y-80509524D01*
X121052381Y-80414286D01*
X121052381Y-80176190D01*
X121100000Y-80080952D01*
X121147619Y-80033333D01*
X121242857Y-79985714D01*
X121338095Y-79985714D01*
X121480952Y-80033333D01*
X122052381Y-80604762D01*
X122052381Y-79985714D01*
X119652381Y-76133333D02*
X120366667Y-76133333D01*
X120509524Y-76180953D01*
X120604762Y-76276191D01*
X120652381Y-76419048D01*
X120652381Y-76514286D01*
X120652381Y-75133333D02*
X120652381Y-75704762D01*
X120652381Y-75419048D02*
X119652381Y-75419048D01*
X119795238Y-75514286D01*
X119890476Y-75609524D01*
X119938095Y-75704762D01*
D10*
X154950001Y-100978571D02*
X154450001Y-100264286D01*
X154092858Y-100978571D02*
X154092858Y-99478571D01*
X154664286Y-99478571D01*
X154807144Y-99550000D01*
X154878572Y-99621429D01*
X154950001Y-99764286D01*
X154950001Y-99978571D01*
X154878572Y-100121429D01*
X154807144Y-100192857D01*
X154664286Y-100264286D01*
X154092858Y-100264286D01*
X155450001Y-99478571D02*
X156450001Y-100978571D01*
X156450001Y-99478571D02*
X155450001Y-100978571D01*
X147757143Y-99478571D02*
X148614286Y-99478571D01*
X148185715Y-100978571D02*
X148185715Y-99478571D01*
X148971429Y-99478571D02*
X149971429Y-100978571D01*
X149971429Y-99478571D02*
X148971429Y-100978571D01*
X148414287Y-110678571D02*
X147700001Y-110678571D01*
X147628572Y-111392857D01*
X147700001Y-111321429D01*
X147842858Y-111250000D01*
X148200001Y-111250000D01*
X148342858Y-111321429D01*
X148414287Y-111392857D01*
X148485715Y-111535714D01*
X148485715Y-111892857D01*
X148414287Y-112035714D01*
X148342858Y-112107143D01*
X148200001Y-112178571D01*
X147842858Y-112178571D01*
X147700001Y-112107143D01*
X147628572Y-112035714D01*
X148914286Y-110678571D02*
X149414286Y-112178571D01*
X149914286Y-110678571D01*
X154157143Y-110750000D02*
X154014286Y-110678571D01*
X153800000Y-110678571D01*
X153585715Y-110750000D01*
X153442857Y-110892857D01*
X153371429Y-111035714D01*
X153300000Y-111321429D01*
X153300000Y-111535714D01*
X153371429Y-111821429D01*
X153442857Y-111964286D01*
X153585715Y-112107143D01*
X153800000Y-112178571D01*
X153942857Y-112178571D01*
X154157143Y-112107143D01*
X154228572Y-112035714D01*
X154228572Y-111535714D01*
X153942857Y-111535714D01*
X154871429Y-112178571D02*
X154871429Y-110678571D01*
X155728572Y-112178571D01*
X155728572Y-110678571D01*
X156442858Y-112178571D02*
X156442858Y-110678571D01*
X156800001Y-110678571D01*
X157014286Y-110750000D01*
X157157144Y-110892857D01*
X157228572Y-111035714D01*
X157300001Y-111321429D01*
X157300001Y-111535714D01*
X157228572Y-111821429D01*
X157157144Y-111964286D01*
X157014286Y-112107143D01*
X156800001Y-112178571D01*
X156442858Y-112178571D01*
X169190476Y-93100000D02*
X169095238Y-93052381D01*
X168952381Y-93052381D01*
X168809523Y-93100000D01*
X168714285Y-93195238D01*
X168666666Y-93290476D01*
X168619047Y-93480952D01*
X168619047Y-93623810D01*
X168666666Y-93814286D01*
X168714285Y-93909524D01*
X168809523Y-94004762D01*
X168952381Y-94052381D01*
X169047619Y-94052381D01*
X169190476Y-94004762D01*
X169238095Y-93957143D01*
X169238095Y-93623810D01*
X169047619Y-93623810D01*
X169666666Y-94052381D02*
X169666666Y-93385714D01*
X169666666Y-93576190D02*
X169714285Y-93480952D01*
X169761904Y-93433333D01*
X169857142Y-93385714D01*
X169952381Y-93385714D01*
X170428571Y-94052381D02*
X170333333Y-94004762D01*
X170285714Y-93957143D01*
X170238095Y-93861905D01*
X170238095Y-93576190D01*
X170285714Y-93480952D01*
X170333333Y-93433333D01*
X170428571Y-93385714D01*
X170571429Y-93385714D01*
X170666667Y-93433333D01*
X170714286Y-93480952D01*
X170761905Y-93576190D01*
X170761905Y-93861905D01*
X170714286Y-93957143D01*
X170666667Y-94004762D01*
X170571429Y-94052381D01*
X170428571Y-94052381D01*
X171095238Y-93385714D02*
X171333333Y-94052381D01*
X171571429Y-93385714D01*
X172333334Y-94004762D02*
X172238096Y-94052381D01*
X172047619Y-94052381D01*
X171952381Y-94004762D01*
X171904762Y-93909524D01*
X171904762Y-93528571D01*
X171952381Y-93433333D01*
X172047619Y-93385714D01*
X172238096Y-93385714D01*
X172333334Y-93433333D01*
X172380953Y-93528571D01*
X172380953Y-93623810D01*
X171904762Y-93719048D01*
X168342857Y-89404762D02*
X168485714Y-89452381D01*
X168723810Y-89452381D01*
X168819048Y-89404762D01*
X168866667Y-89357143D01*
X168914286Y-89261905D01*
X168914286Y-89166667D01*
X168866667Y-89071429D01*
X168819048Y-89023810D01*
X168723810Y-88976190D01*
X168533333Y-88928571D01*
X168438095Y-88880952D01*
X168390476Y-88833333D01*
X168342857Y-88738095D01*
X168342857Y-88642857D01*
X168390476Y-88547619D01*
X168438095Y-88500000D01*
X168533333Y-88452381D01*
X168771429Y-88452381D01*
X168914286Y-88500000D01*
X169723810Y-89404762D02*
X169628572Y-89452381D01*
X169438095Y-89452381D01*
X169342857Y-89404762D01*
X169295238Y-89309524D01*
X169295238Y-88928571D01*
X169342857Y-88833333D01*
X169438095Y-88785714D01*
X169628572Y-88785714D01*
X169723810Y-88833333D01*
X169771429Y-88928571D01*
X169771429Y-89023810D01*
X169295238Y-89119048D01*
X170200000Y-89452381D02*
X170200000Y-88785714D01*
X170200000Y-88976190D02*
X170247619Y-88880952D01*
X170295238Y-88833333D01*
X170390476Y-88785714D01*
X170485715Y-88785714D01*
X170723810Y-88785714D02*
X170961905Y-89452381D01*
X171200001Y-88785714D01*
X171723810Y-89452381D02*
X171628572Y-89404762D01*
X171580953Y-89357143D01*
X171533334Y-89261905D01*
X171533334Y-88976190D01*
X171580953Y-88880952D01*
X171628572Y-88833333D01*
X171723810Y-88785714D01*
X171866668Y-88785714D01*
X171961906Y-88833333D01*
X172009525Y-88880952D01*
X172057144Y-88976190D01*
X172057144Y-89261905D01*
X172009525Y-89357143D01*
X171961906Y-89404762D01*
X171866668Y-89452381D01*
X171723810Y-89452381D01*
D11*
X126478571Y-93714285D02*
X124978571Y-93714285D01*
X126050000Y-93214285D01*
X124978571Y-92714285D01*
X126478571Y-92714285D01*
X126478571Y-91214285D02*
X126478571Y-92071428D01*
X126478571Y-91642856D02*
X124978571Y-91642856D01*
X125192857Y-91785713D01*
X125335714Y-91928571D01*
X125407143Y-92071428D01*
X126478571Y-103928571D02*
X126478571Y-104785714D01*
X126478571Y-104357142D02*
X124978571Y-104357142D01*
X125192857Y-104499999D01*
X125335714Y-104642857D01*
X125407143Y-104785714D01*
X125121429Y-103357143D02*
X125050000Y-103285714D01*
X124978571Y-103142857D01*
X124978571Y-102785714D01*
X125050000Y-102642857D01*
X125121429Y-102571428D01*
X125264286Y-102500000D01*
X125407143Y-102500000D01*
X125621429Y-102571428D01*
X126478571Y-103428571D01*
X126478571Y-102500000D01*
X124978571Y-102071429D02*
X126478571Y-101571429D01*
X124978571Y-101071429D01*
X126478571Y-114714285D02*
X124978571Y-114714285D01*
X126050000Y-114214285D01*
X124978571Y-113714285D01*
X126478571Y-113714285D01*
X125121429Y-113071428D02*
X125050000Y-112999999D01*
X124978571Y-112857142D01*
X124978571Y-112499999D01*
X125050000Y-112357142D01*
X125121429Y-112285713D01*
X125264286Y-112214285D01*
X125407143Y-112214285D01*
X125621429Y-112285713D01*
X126478571Y-113142856D01*
X126478571Y-112214285D01*
D10*
X170076191Y-102052381D02*
X170076191Y-101052381D01*
X170742857Y-101052381D02*
X170933334Y-101052381D01*
X171028572Y-101100000D01*
X171123810Y-101195238D01*
X171171429Y-101385714D01*
X171171429Y-101719048D01*
X171123810Y-101909524D01*
X171028572Y-102004762D01*
X170933334Y-102052381D01*
X170742857Y-102052381D01*
X170647619Y-102004762D01*
X170552381Y-101909524D01*
X170504762Y-101719048D01*
X170504762Y-101385714D01*
X170552381Y-101195238D01*
X170647619Y-101100000D01*
X170742857Y-101052381D01*
X127304762Y-81147619D02*
X127209524Y-81100000D01*
X127114286Y-81004762D01*
X126971429Y-80861905D01*
X126876190Y-80814286D01*
X126780952Y-80814286D01*
X126828571Y-81052381D02*
X126733333Y-81004762D01*
X126638095Y-80909524D01*
X126590476Y-80719048D01*
X126590476Y-80385714D01*
X126638095Y-80195238D01*
X126733333Y-80100000D01*
X126828571Y-80052381D01*
X127019048Y-80052381D01*
X127114286Y-80100000D01*
X127209524Y-80195238D01*
X127257143Y-80385714D01*
X127257143Y-80719048D01*
X127209524Y-80909524D01*
X127114286Y-81004762D01*
X127019048Y-81052381D01*
X126828571Y-81052381D01*
X128209524Y-81052381D02*
X127638095Y-81052381D01*
X127923809Y-81052381D02*
X127923809Y-80052381D01*
X127828571Y-80195238D01*
X127733333Y-80290476D01*
X127638095Y-80338095D01*
X132904762Y-81147619D02*
X132809524Y-81100000D01*
X132714286Y-81004762D01*
X132571429Y-80861905D01*
X132476190Y-80814286D01*
X132380952Y-80814286D01*
X132428571Y-81052381D02*
X132333333Y-81004762D01*
X132238095Y-80909524D01*
X132190476Y-80719048D01*
X132190476Y-80385714D01*
X132238095Y-80195238D01*
X132333333Y-80100000D01*
X132428571Y-80052381D01*
X132619048Y-80052381D01*
X132714286Y-80100000D01*
X132809524Y-80195238D01*
X132857143Y-80385714D01*
X132857143Y-80719048D01*
X132809524Y-80909524D01*
X132714286Y-81004762D01*
X132619048Y-81052381D01*
X132428571Y-81052381D01*
X133238095Y-80147619D02*
X133285714Y-80100000D01*
X133380952Y-80052381D01*
X133619048Y-80052381D01*
X133714286Y-80100000D01*
X133761905Y-80147619D01*
X133809524Y-80242857D01*
X133809524Y-80338095D01*
X133761905Y-80480952D01*
X133190476Y-81052381D01*
X133809524Y-81052381D01*
D12*
X167233334Y-76952381D02*
X166900000Y-76476190D01*
X166661905Y-76952381D02*
X166661905Y-75952381D01*
X167042858Y-75952381D01*
X167138096Y-76000000D01*
X167185715Y-76047619D01*
X167233334Y-76142857D01*
X167233334Y-76285714D01*
X167185715Y-76380952D01*
X167138096Y-76428571D01*
X167042858Y-76476190D01*
X166661905Y-76476190D01*
X168185715Y-76952381D02*
X167614286Y-76952381D01*
X167900000Y-76952381D02*
X167900000Y-75952381D01*
X167804762Y-76095238D01*
X167709524Y-76190476D01*
X167614286Y-76238095D01*
X151933334Y-76952381D02*
X151600000Y-76476190D01*
X151361905Y-76952381D02*
X151361905Y-75952381D01*
X151742858Y-75952381D01*
X151838096Y-76000000D01*
X151885715Y-76047619D01*
X151933334Y-76142857D01*
X151933334Y-76285714D01*
X151885715Y-76380952D01*
X151838096Y-76428571D01*
X151742858Y-76476190D01*
X151361905Y-76476190D01*
X152314286Y-76047619D02*
X152361905Y-76000000D01*
X152457143Y-75952381D01*
X152695239Y-75952381D01*
X152790477Y-76000000D01*
X152838096Y-76047619D01*
X152885715Y-76142857D01*
X152885715Y-76238095D01*
X152838096Y-76380952D01*
X152266667Y-76952381D01*
X152885715Y-76952381D01*
X159533334Y-76952381D02*
X159200000Y-76476190D01*
X158961905Y-76952381D02*
X158961905Y-75952381D01*
X159342858Y-75952381D01*
X159438096Y-76000000D01*
X159485715Y-76047619D01*
X159533334Y-76142857D01*
X159533334Y-76285714D01*
X159485715Y-76380952D01*
X159438096Y-76428571D01*
X159342858Y-76476190D01*
X158961905Y-76476190D01*
X159866667Y-75952381D02*
X160485715Y-75952381D01*
X160152381Y-76333333D01*
X160295239Y-76333333D01*
X160390477Y-76380952D01*
X160438096Y-76428571D01*
X160485715Y-76523810D01*
X160485715Y-76761905D01*
X160438096Y-76857143D01*
X160390477Y-76904762D01*
X160295239Y-76952381D01*
X160009524Y-76952381D01*
X159914286Y-76904762D01*
X159866667Y-76857143D01*
X174733334Y-89952381D02*
X174400000Y-89476190D01*
X174161905Y-89952381D02*
X174161905Y-88952381D01*
X174542858Y-88952381D01*
X174638096Y-89000000D01*
X174685715Y-89047619D01*
X174733334Y-89142857D01*
X174733334Y-89285714D01*
X174685715Y-89380952D01*
X174638096Y-89428571D01*
X174542858Y-89476190D01*
X174161905Y-89476190D01*
X175590477Y-89285714D02*
X175590477Y-89952381D01*
X175352381Y-88904762D02*
X175114286Y-89619048D01*
X175733334Y-89619048D01*
X124533334Y-84552381D02*
X124200000Y-84076190D01*
X123961905Y-84552381D02*
X123961905Y-83552381D01*
X124342858Y-83552381D01*
X124438096Y-83600000D01*
X124485715Y-83647619D01*
X124533334Y-83742857D01*
X124533334Y-83885714D01*
X124485715Y-83980952D01*
X124438096Y-84028571D01*
X124342858Y-84076190D01*
X123961905Y-84076190D01*
X125438096Y-83552381D02*
X124961905Y-83552381D01*
X124914286Y-84028571D01*
X124961905Y-83980952D01*
X125057143Y-83933333D01*
X125295239Y-83933333D01*
X125390477Y-83980952D01*
X125438096Y-84028571D01*
X125485715Y-84123810D01*
X125485715Y-84361905D01*
X125438096Y-84457143D01*
X125390477Y-84504762D01*
X125295239Y-84552381D01*
X125057143Y-84552381D01*
X124961905Y-84504762D01*
X124914286Y-84457143D01*
X124433334Y-77652381D02*
X124100000Y-77176190D01*
X123861905Y-77652381D02*
X123861905Y-76652381D01*
X124242858Y-76652381D01*
X124338096Y-76700000D01*
X124385715Y-76747619D01*
X124433334Y-76842857D01*
X124433334Y-76985714D01*
X124385715Y-77080952D01*
X124338096Y-77128571D01*
X124242858Y-77176190D01*
X123861905Y-77176190D01*
X125290477Y-76652381D02*
X125100000Y-76652381D01*
X125004762Y-76700000D01*
X124957143Y-76747619D01*
X124861905Y-76890476D01*
X124814286Y-77080952D01*
X124814286Y-77461905D01*
X124861905Y-77557143D01*
X124909524Y-77604762D01*
X125004762Y-77652381D01*
X125195239Y-77652381D01*
X125290477Y-77604762D01*
X125338096Y-77557143D01*
X125385715Y-77461905D01*
X125385715Y-77223810D01*
X125338096Y-77128571D01*
X125290477Y-77080952D01*
X125195239Y-77033333D01*
X125004762Y-77033333D01*
X124909524Y-77080952D01*
X124861905Y-77128571D01*
X124814286Y-77223810D01*
X130133334Y-84552381D02*
X129800000Y-84076190D01*
X129561905Y-84552381D02*
X129561905Y-83552381D01*
X129942858Y-83552381D01*
X130038096Y-83600000D01*
X130085715Y-83647619D01*
X130133334Y-83742857D01*
X130133334Y-83885714D01*
X130085715Y-83980952D01*
X130038096Y-84028571D01*
X129942858Y-84076190D01*
X129561905Y-84076190D01*
X130466667Y-83552381D02*
X131133334Y-83552381D01*
X130704762Y-84552381D01*
X130133334Y-77652381D02*
X129800000Y-77176190D01*
X129561905Y-77652381D02*
X129561905Y-76652381D01*
X129942858Y-76652381D01*
X130038096Y-76700000D01*
X130085715Y-76747619D01*
X130133334Y-76842857D01*
X130133334Y-76985714D01*
X130085715Y-77080952D01*
X130038096Y-77128571D01*
X129942858Y-77176190D01*
X129561905Y-77176190D01*
X130704762Y-77080952D02*
X130609524Y-77033333D01*
X130561905Y-76985714D01*
X130514286Y-76890476D01*
X130514286Y-76842857D01*
X130561905Y-76747619D01*
X130609524Y-76700000D01*
X130704762Y-76652381D01*
X130895239Y-76652381D01*
X130990477Y-76700000D01*
X131038096Y-76747619D01*
X131085715Y-76842857D01*
X131085715Y-76890476D01*
X131038096Y-76985714D01*
X130990477Y-77033333D01*
X130895239Y-77080952D01*
X130704762Y-77080952D01*
X130609524Y-77128571D01*
X130561905Y-77176190D01*
X130514286Y-77271429D01*
X130514286Y-77461905D01*
X130561905Y-77557143D01*
X130609524Y-77604762D01*
X130704762Y-77652381D01*
X130895239Y-77652381D01*
X130990477Y-77604762D01*
X131038096Y-77557143D01*
X131085715Y-77461905D01*
X131085715Y-77271429D01*
X131038096Y-77176190D01*
X130990477Y-77128571D01*
X130895239Y-77080952D01*
D10*
X171804762Y-84761905D02*
X171852381Y-84619048D01*
X171852381Y-84380952D01*
X171804762Y-84285714D01*
X171757143Y-84238095D01*
X171661905Y-84190476D01*
X171566667Y-84190476D01*
X171471429Y-84238095D01*
X171423810Y-84285714D01*
X171376190Y-84380952D01*
X171328571Y-84571429D01*
X171280952Y-84666667D01*
X171233333Y-84714286D01*
X171138095Y-84761905D01*
X171042857Y-84761905D01*
X170947619Y-84714286D01*
X170900000Y-84666667D01*
X170852381Y-84571429D01*
X170852381Y-84333333D01*
X170900000Y-84190476D01*
X170852381Y-83857143D02*
X171852381Y-83619048D01*
X171138095Y-83428571D01*
X171852381Y-83238095D01*
X170852381Y-83000000D01*
X171947619Y-82857143D02*
X171947619Y-82095238D01*
X171852381Y-81857143D02*
X170852381Y-81857143D01*
X170852381Y-81476190D01*
X170900000Y-81380952D01*
X170947619Y-81333333D01*
X171042857Y-81285714D01*
X171185714Y-81285714D01*
X171280952Y-81333333D01*
X171328571Y-81380952D01*
X171376190Y-81476190D01*
X171376190Y-81857143D01*
X170852381Y-80857143D02*
X171661905Y-80857143D01*
X171757143Y-80809524D01*
X171804762Y-80761905D01*
X171852381Y-80666667D01*
X171852381Y-80476190D01*
X171804762Y-80380952D01*
X171757143Y-80333333D01*
X171661905Y-80285714D01*
X170852381Y-80285714D01*
X171804762Y-79857143D02*
X171852381Y-79714286D01*
X171852381Y-79476190D01*
X171804762Y-79380952D01*
X171757143Y-79333333D01*
X171661905Y-79285714D01*
X171566667Y-79285714D01*
X171471429Y-79333333D01*
X171423810Y-79380952D01*
X171376190Y-79476190D01*
X171328571Y-79666667D01*
X171280952Y-79761905D01*
X171233333Y-79809524D01*
X171138095Y-79857143D01*
X171042857Y-79857143D01*
X170947619Y-79809524D01*
X170900000Y-79761905D01*
X170852381Y-79666667D01*
X170852381Y-79428571D01*
X170900000Y-79285714D01*
X171852381Y-78857143D02*
X170852381Y-78857143D01*
X171328571Y-78857143D02*
X171328571Y-78285714D01*
X171852381Y-78285714D02*
X170852381Y-78285714D01*
D12*
X131548095Y-91262381D02*
X131548095Y-92071905D01*
X131595714Y-92167143D01*
X131643333Y-92214762D01*
X131738571Y-92262381D01*
X131929048Y-92262381D01*
X132024286Y-92214762D01*
X132071905Y-92167143D01*
X132119524Y-92071905D01*
X132119524Y-91262381D01*
X133119524Y-92262381D02*
X132548095Y-92262381D01*
X132833809Y-92262381D02*
X132833809Y-91262381D01*
X132738571Y-91405238D01*
X132643333Y-91500476D01*
X132548095Y-91548095D01*
D10*
X167461905Y-107352381D02*
X167461905Y-106352381D01*
X168033334Y-107352381D02*
X167604762Y-106780952D01*
X168033334Y-106352381D02*
X167461905Y-106923810D01*
X168652381Y-106876190D02*
X168652381Y-107352381D01*
X168319048Y-106352381D02*
X168652381Y-106876190D01*
X168985715Y-106352381D01*
X169319048Y-106971429D02*
X170080953Y-106971429D01*
X170747619Y-106352381D02*
X170842858Y-106352381D01*
X170938096Y-106400000D01*
X170985715Y-106447619D01*
X171033334Y-106542857D01*
X171080953Y-106733333D01*
X171080953Y-106971429D01*
X171033334Y-107161905D01*
X170985715Y-107257143D01*
X170938096Y-107304762D01*
X170842858Y-107352381D01*
X170747619Y-107352381D01*
X170652381Y-107304762D01*
X170604762Y-107257143D01*
X170557143Y-107161905D01*
X170509524Y-106971429D01*
X170509524Y-106733333D01*
X170557143Y-106542857D01*
X170604762Y-106447619D01*
X170652381Y-106400000D01*
X170747619Y-106352381D01*
X171414286Y-106352381D02*
X172033334Y-106352381D01*
X171700000Y-106733333D01*
X171842858Y-106733333D01*
X171938096Y-106780952D01*
X171985715Y-106828571D01*
X172033334Y-106923810D01*
X172033334Y-107161905D01*
X171985715Y-107257143D01*
X171938096Y-107304762D01*
X171842858Y-107352381D01*
X171557143Y-107352381D01*
X171461905Y-107304762D01*
X171414286Y-107257143D01*
X172366667Y-106352381D02*
X172985715Y-106352381D01*
X172652381Y-106733333D01*
X172795239Y-106733333D01*
X172890477Y-106780952D01*
X172938096Y-106828571D01*
X172985715Y-106923810D01*
X172985715Y-107161905D01*
X172938096Y-107257143D01*
X172890477Y-107304762D01*
X172795239Y-107352381D01*
X172509524Y-107352381D01*
X172414286Y-107304762D01*
X172366667Y-107257143D01*
X167561905Y-112952381D02*
X167561905Y-111952381D01*
X168133334Y-112952381D02*
X167704762Y-112380952D01*
X168133334Y-111952381D02*
X167561905Y-112523810D01*
X168752381Y-112476190D02*
X168752381Y-112952381D01*
X168419048Y-111952381D02*
X168752381Y-112476190D01*
X169085715Y-111952381D01*
X169419048Y-112571429D02*
X170180953Y-112571429D01*
X170847619Y-111952381D02*
X170942858Y-111952381D01*
X171038096Y-112000000D01*
X171085715Y-112047619D01*
X171133334Y-112142857D01*
X171180953Y-112333333D01*
X171180953Y-112571429D01*
X171133334Y-112761905D01*
X171085715Y-112857143D01*
X171038096Y-112904762D01*
X170942858Y-112952381D01*
X170847619Y-112952381D01*
X170752381Y-112904762D01*
X170704762Y-112857143D01*
X170657143Y-112761905D01*
X170609524Y-112571429D01*
X170609524Y-112333333D01*
X170657143Y-112142857D01*
X170704762Y-112047619D01*
X170752381Y-112000000D01*
X170847619Y-111952381D01*
X171514286Y-111952381D02*
X172133334Y-111952381D01*
X171800000Y-112333333D01*
X171942858Y-112333333D01*
X172038096Y-112380952D01*
X172085715Y-112428571D01*
X172133334Y-112523810D01*
X172133334Y-112761905D01*
X172085715Y-112857143D01*
X172038096Y-112904762D01*
X171942858Y-112952381D01*
X171657143Y-112952381D01*
X171561905Y-112904762D01*
X171514286Y-112857143D01*
X172466667Y-111952381D02*
X173085715Y-111952381D01*
X172752381Y-112333333D01*
X172895239Y-112333333D01*
X172990477Y-112380952D01*
X173038096Y-112428571D01*
X173085715Y-112523810D01*
X173085715Y-112761905D01*
X173038096Y-112857143D01*
X172990477Y-112904762D01*
X172895239Y-112952381D01*
X172609524Y-112952381D01*
X172514286Y-112904762D01*
X172466667Y-112857143D01*
D12*
X146138095Y-85652381D02*
X146138095Y-86461905D01*
X146185714Y-86557143D01*
X146233333Y-86604762D01*
X146328571Y-86652381D01*
X146519048Y-86652381D01*
X146614286Y-86604762D01*
X146661905Y-86557143D01*
X146709524Y-86461905D01*
X146709524Y-85652381D01*
X147614286Y-85985714D02*
X147614286Y-86652381D01*
X147376190Y-85604762D02*
X147138095Y-86319048D01*
X147757143Y-86319048D01*
M02*
