G04 #@! TF.FileFunction,Copper,L1,Top,Signal*
%FSLAX46Y46*%
G04 Gerber Fmt 4.6, Leading zero omitted, Abs format (unit mm)*
G04 Created by KiCad (PCBNEW 4.0.7) date 09/24/17 15:20:56*
%MOMM*%
%LPD*%
G01*
G04 APERTURE LIST*
%ADD10C,0.100000*%
%ADD11R,1.500000X1.250000*%
%ADD12R,1.900000X2.000000*%
%ADD13C,1.900000*%
%ADD14R,1.300000X1.500000*%
%ADD15R,1.727200X1.727200*%
%ADD16O,1.727200X1.727200*%
%ADD17C,4.200000*%
%ADD18C,5.000000*%
%ADD19R,5.000000X4.000000*%
%ADD20C,1.524000*%
%ADD21R,1.727200X2.032000*%
%ADD22O,1.727200X2.032000*%
%ADD23C,2.500000*%
%ADD24O,0.899160X1.501140*%
%ADD25R,1.500000X1.300000*%
%ADD26C,1.998980*%
%ADD27R,2.400000X1.600000*%
%ADD28O,2.400000X1.600000*%
%ADD29R,1.000000X0.400000*%
%ADD30C,0.600000*%
%ADD31C,0.300000*%
%ADD32C,0.250000*%
%ADD33C,0.500000*%
%ADD34C,1.000000*%
%ADD35C,0.254000*%
G04 APERTURE END LIST*
D10*
D11*
X139350000Y-87800000D03*
X141850000Y-87800000D03*
X151950000Y-87800000D03*
X154450000Y-87800000D03*
D12*
X166000000Y-82400000D03*
D13*
X168540000Y-82400000D03*
D12*
X150800000Y-82400000D03*
D13*
X153340000Y-82400000D03*
D12*
X158400000Y-82400000D03*
D13*
X160940000Y-82400000D03*
D14*
X117300000Y-82050000D03*
X117300000Y-79350000D03*
X120000000Y-79350000D03*
X120000000Y-82050000D03*
D15*
X122600000Y-75000000D03*
D16*
X122600000Y-72460000D03*
X125140000Y-75000000D03*
X125140000Y-72460000D03*
X127680000Y-75000000D03*
X127680000Y-72460000D03*
X130220000Y-75000000D03*
X130220000Y-72460000D03*
X132760000Y-75000000D03*
X132760000Y-72460000D03*
X135300000Y-75000000D03*
X135300000Y-72460000D03*
X137840000Y-75000000D03*
X137840000Y-72460000D03*
X140380000Y-75000000D03*
X140380000Y-72460000D03*
X142920000Y-75000000D03*
X142920000Y-72460000D03*
X145460000Y-75000000D03*
X145460000Y-72460000D03*
X148000000Y-75000000D03*
X148000000Y-72460000D03*
X150540000Y-75000000D03*
X150540000Y-72460000D03*
X153080000Y-75000000D03*
X153080000Y-72460000D03*
X155620000Y-75000000D03*
X155620000Y-72460000D03*
X158160000Y-75000000D03*
X158160000Y-72460000D03*
X160700000Y-75000000D03*
X160700000Y-72460000D03*
X163240000Y-75000000D03*
X163240000Y-72460000D03*
X165780000Y-75000000D03*
X165780000Y-72460000D03*
X168320000Y-75000000D03*
X168320000Y-72460000D03*
X170860000Y-75000000D03*
X170860000Y-72460000D03*
D17*
X150000000Y-102550000D03*
X150000000Y-98050000D03*
X143700000Y-102550000D03*
X143700000Y-98050000D03*
X143500000Y-113750000D03*
X143500000Y-109250000D03*
X150100000Y-113750000D03*
X150100000Y-109250000D03*
D18*
X124400000Y-121800000D03*
D19*
X124400000Y-123800000D03*
D18*
X154400000Y-121800000D03*
D19*
X154400000Y-123800000D03*
D18*
X139400000Y-121800000D03*
D19*
X139400000Y-123800000D03*
D18*
X161900000Y-121800000D03*
D19*
X161900000Y-123800000D03*
D18*
X146900000Y-121800000D03*
D19*
X146900000Y-123800000D03*
D18*
X131900000Y-121800000D03*
D19*
X131900000Y-123800000D03*
D20*
X167400000Y-96700000D03*
X169400000Y-96700000D03*
X171400000Y-96700000D03*
X173400000Y-96700000D03*
D21*
X167800000Y-91300000D03*
D22*
X170340000Y-91300000D03*
X172880000Y-91300000D03*
D23*
X119200000Y-89900000D03*
X119200000Y-94900000D03*
X119200000Y-100400000D03*
X119200000Y-105400000D03*
X119200000Y-110900000D03*
X119200000Y-115900000D03*
D18*
X169400000Y-121800000D03*
D19*
X169400000Y-123800000D03*
D21*
X166700000Y-103900000D03*
D22*
X169240000Y-103900000D03*
X171780000Y-103900000D03*
X174320000Y-103900000D03*
D24*
X124670000Y-82600000D03*
X125940000Y-82600000D03*
X123400000Y-82600000D03*
X130270000Y-82600000D03*
X131540000Y-82600000D03*
X129000000Y-82600000D03*
D25*
X166050000Y-78100000D03*
X168750000Y-78100000D03*
X150750000Y-78100000D03*
X153450000Y-78100000D03*
X158350000Y-78100000D03*
X161050000Y-78100000D03*
X176250000Y-87900000D03*
X173550000Y-87900000D03*
X123350000Y-85700000D03*
X126050000Y-85700000D03*
X123250000Y-78800000D03*
X125950000Y-78800000D03*
X128950000Y-85700000D03*
X131650000Y-85700000D03*
X128950000Y-78800000D03*
X131650000Y-78800000D03*
D26*
X173349560Y-78248800D03*
X177850440Y-84751200D03*
X177850440Y-78248800D03*
X173349560Y-84751200D03*
D27*
X128500000Y-94200000D03*
D28*
X136120000Y-111980000D03*
X128500000Y-96740000D03*
X136120000Y-109440000D03*
X128500000Y-99280000D03*
X136120000Y-106900000D03*
X128500000Y-101820000D03*
X136120000Y-104360000D03*
X128500000Y-104360000D03*
X136120000Y-101820000D03*
X128500000Y-106900000D03*
X136120000Y-99280000D03*
X128500000Y-109440000D03*
X136120000Y-96740000D03*
X128500000Y-111980000D03*
X136120000Y-94200000D03*
D21*
X167800000Y-109200000D03*
D22*
X170340000Y-109200000D03*
X172880000Y-109200000D03*
D21*
X167900000Y-114800000D03*
D22*
X170440000Y-114800000D03*
X172980000Y-114800000D03*
D29*
X144000000Y-87575000D03*
X144000000Y-88225000D03*
X144000000Y-88875000D03*
X144000000Y-89525000D03*
X144000000Y-90175000D03*
X144000000Y-90825000D03*
X144000000Y-91475000D03*
X144000000Y-92125000D03*
X144000000Y-92775000D03*
X144000000Y-93425000D03*
X149800000Y-93425000D03*
X149800000Y-92775000D03*
X149800000Y-92125000D03*
X149800000Y-91475000D03*
X149800000Y-90825000D03*
X149800000Y-90175000D03*
X149800000Y-89525000D03*
X149800000Y-88875000D03*
X149800000Y-88225000D03*
X149800000Y-87575000D03*
D30*
X134300000Y-77400000D03*
X154300000Y-86100000D03*
X149800000Y-94500000D03*
X139600000Y-89900000D03*
X163400000Y-117200000D03*
X123300000Y-87200000D03*
X128800000Y-87300000D03*
X142100000Y-86500000D03*
X149029363Y-86689890D03*
D31*
X132760000Y-75000000D02*
X132760000Y-76221314D01*
X132760000Y-76221314D02*
X133938686Y-77400000D01*
X133938686Y-77400000D02*
X134300000Y-77400000D01*
X154450000Y-87800000D02*
X154450000Y-86250000D01*
X154450000Y-86250000D02*
X154300000Y-86100000D01*
X149800000Y-94500000D02*
X149800000Y-93425000D01*
X139350000Y-88300000D02*
X139350000Y-89650000D01*
X139350000Y-89650000D02*
X139600000Y-89900000D01*
X150100000Y-109250000D02*
X150100000Y-113750000D01*
X143500000Y-113750000D02*
X143500000Y-113800000D01*
X143500000Y-113800000D02*
X146900000Y-117200000D01*
X146900000Y-117200000D02*
X163400000Y-117200000D01*
X170440000Y-114800000D02*
X170440000Y-109300000D01*
X170440000Y-109300000D02*
X170340000Y-109200000D01*
X170340000Y-109200000D02*
X170340000Y-107860000D01*
X171780000Y-106420000D02*
X171780000Y-103900000D01*
X170340000Y-107860000D02*
X171780000Y-106420000D01*
X171780000Y-103900000D02*
X171780000Y-100880000D01*
X173060000Y-98660000D02*
X171400000Y-97000000D01*
X173060000Y-99600000D02*
X173060000Y-98660000D01*
X171780000Y-100880000D02*
X173060000Y-99600000D01*
X171400000Y-97000000D02*
X171400000Y-96700000D01*
X170340000Y-91300000D02*
X170340000Y-95640000D01*
X170340000Y-95640000D02*
X171400000Y-96700000D01*
X133600000Y-118100000D02*
X136120000Y-115580000D01*
X136120000Y-115580000D02*
X136120000Y-111980000D01*
X129900000Y-118100000D02*
X133600000Y-118100000D01*
X128699999Y-119300001D02*
X129900000Y-118100000D01*
X124400000Y-121800000D02*
X126899999Y-119300001D01*
X126899999Y-119300001D02*
X128699999Y-119300001D01*
D32*
X123300000Y-87200000D02*
X123300000Y-85750000D01*
X123300000Y-85750000D02*
X123350000Y-85700000D01*
X128950000Y-87150000D02*
X128800000Y-87300000D01*
X128950000Y-85700000D02*
X128950000Y-87150000D01*
X117300000Y-83050000D02*
X119950000Y-85700000D01*
X119950000Y-85700000D02*
X123350000Y-85700000D01*
X117300000Y-82050000D02*
X117300000Y-83050000D01*
D31*
X149800000Y-88225000D02*
X151525000Y-88225000D01*
X151525000Y-88225000D02*
X151950000Y-87800000D01*
X166050000Y-78100000D02*
X166050000Y-79910000D01*
X166050000Y-79910000D02*
X168540000Y-82400000D01*
X150750000Y-78100000D02*
X150750000Y-79810000D01*
X150750000Y-79810000D02*
X153340000Y-82400000D01*
X158350000Y-78100000D02*
X158350000Y-79810000D01*
X158350000Y-79810000D02*
X160940000Y-82400000D01*
D33*
X117300000Y-79350000D02*
X117650000Y-79350000D01*
X117650000Y-79350000D02*
X120900000Y-76100000D01*
X120900000Y-76100000D02*
X120900000Y-73500000D01*
X120900000Y-73500000D02*
X121940000Y-72460000D01*
X121940000Y-72460000D02*
X122600000Y-72460000D01*
X125140000Y-72460000D02*
X122600000Y-72460000D01*
X120000000Y-79350000D02*
X120000000Y-79100000D01*
X120000000Y-79100000D02*
X122600000Y-76500000D01*
X122600000Y-76500000D02*
X122600000Y-75000000D01*
D31*
X123400000Y-82600000D02*
X123400000Y-81250000D01*
X123400000Y-81250000D02*
X125850000Y-78800000D01*
X125850000Y-78800000D02*
X125950000Y-78800000D01*
D33*
X125950000Y-78800000D02*
X125950000Y-75810000D01*
X125950000Y-75810000D02*
X125140000Y-75000000D01*
D31*
X129000000Y-81450000D02*
X131650000Y-78800000D01*
X129000000Y-82600000D02*
X129000000Y-81450000D01*
D33*
X128858686Y-77400000D02*
X130150000Y-77400000D01*
X130150000Y-77400000D02*
X131550000Y-78800000D01*
X127680000Y-75000000D02*
X127680000Y-76221314D01*
X127680000Y-76221314D02*
X128858686Y-77400000D01*
D31*
X131083599Y-73323599D02*
X130220000Y-72460000D01*
X131433601Y-73673601D02*
X131083599Y-73323599D01*
X141474998Y-85849998D02*
X131433601Y-75808601D01*
X144000000Y-87075000D02*
X142774998Y-85849998D01*
X142774998Y-85849998D02*
X141474998Y-85849998D01*
X144000000Y-87575000D02*
X144000000Y-87075000D01*
X131433601Y-75808601D02*
X131433601Y-73673601D01*
X132760000Y-72460000D02*
X134086399Y-73786399D01*
X134086399Y-73786399D02*
X134086399Y-76086399D01*
X134086399Y-76086399D02*
X144850001Y-86850001D01*
X144850001Y-86850001D02*
X144850001Y-88705001D01*
X144850001Y-88705001D02*
X144680002Y-88875000D01*
X144680002Y-88875000D02*
X144000000Y-88875000D01*
D32*
X144000000Y-89525000D02*
X144737124Y-89525000D01*
X144737124Y-89525000D02*
X145350012Y-88912112D01*
X145350012Y-88912112D02*
X145350012Y-85650012D01*
X145350012Y-85650012D02*
X138703599Y-79003599D01*
X138703599Y-79003599D02*
X138703599Y-75863599D01*
X138703599Y-75863599D02*
X137840000Y-75000000D01*
X144000000Y-92775000D02*
X145022729Y-92775000D01*
X157296401Y-75863599D02*
X158160000Y-75000000D01*
X145022729Y-92775000D02*
X147850065Y-89947664D01*
X147850065Y-89947664D02*
X147850065Y-86949935D01*
X156660000Y-76500000D02*
X157296401Y-75863599D01*
X147850065Y-86949935D02*
X149300000Y-85500000D01*
X149300000Y-85500000D02*
X149300000Y-77519998D01*
X149300000Y-77519998D02*
X150319998Y-76500000D01*
X150319998Y-76500000D02*
X156660000Y-76500000D01*
X144908485Y-91475000D02*
X144800000Y-91475000D01*
X144800000Y-91475000D02*
X144000000Y-91475000D01*
X148000000Y-75000000D02*
X146850043Y-76149957D01*
X146850043Y-89533442D02*
X144908485Y-91475000D01*
X146850043Y-76149957D02*
X146850043Y-89533442D01*
X144000000Y-92125000D02*
X144965607Y-92125000D01*
X144965607Y-92125000D02*
X147350054Y-89740553D01*
X147350054Y-89740553D02*
X147350054Y-85749946D01*
X147350054Y-85749946D02*
X148400000Y-84700000D01*
X149676401Y-75863599D02*
X150540000Y-75000000D01*
X148400000Y-84700000D02*
X148400000Y-77140000D01*
X148400000Y-77140000D02*
X149676401Y-75863599D01*
D31*
X173349560Y-84751200D02*
X173349560Y-87699560D01*
X173349560Y-87699560D02*
X173550000Y-87900000D01*
D32*
X145460000Y-75000000D02*
X145460000Y-82760000D01*
X145460000Y-82760000D02*
X146350032Y-83650032D01*
X146350032Y-83650032D02*
X146350032Y-89326331D01*
X146350032Y-89326331D02*
X144851363Y-90825000D01*
X144851363Y-90825000D02*
X144000000Y-90825000D01*
D31*
X169996401Y-73323599D02*
X170860000Y-72460000D01*
X169646399Y-73673601D02*
X169996401Y-73323599D01*
X169646399Y-76253601D02*
X169646399Y-73673601D01*
X168750000Y-78100000D02*
X168750000Y-77150000D01*
X168750000Y-77150000D02*
X169646399Y-76253601D01*
D32*
X144000000Y-90175000D02*
X144794241Y-90175000D01*
X144794241Y-90175000D02*
X145850021Y-89119220D01*
X145850021Y-89119220D02*
X145850021Y-84950021D01*
X145850021Y-84950021D02*
X141243599Y-80343599D01*
X141243599Y-80343599D02*
X141243599Y-75863599D01*
X141243599Y-75863599D02*
X140380000Y-75000000D01*
D31*
X154500000Y-78100000D02*
X153450000Y-78100000D01*
X165780000Y-72460000D02*
X164566399Y-73673601D01*
X164566399Y-73673601D02*
X164566399Y-75469731D01*
X164566399Y-75469731D02*
X163236130Y-76800000D01*
X163236130Y-76800000D02*
X157500000Y-76800000D01*
X157500000Y-76800000D02*
X156200000Y-78100000D01*
X156200000Y-78100000D02*
X154500000Y-78100000D01*
X162100000Y-78100000D02*
X161050000Y-78100000D01*
X164800000Y-76900000D02*
X163600000Y-78100000D01*
X165676130Y-76900000D02*
X164800000Y-76900000D01*
X163600000Y-78100000D02*
X162100000Y-78100000D01*
X168320000Y-72460000D02*
X167000000Y-73780000D01*
X167000000Y-73780000D02*
X167000000Y-75576130D01*
X167000000Y-75576130D02*
X165676130Y-76900000D01*
D32*
X150000000Y-98050000D02*
X150000000Y-102550000D01*
X150000000Y-98050000D02*
X150000000Y-95700000D01*
X150000000Y-95700000D02*
X148850087Y-94550087D01*
X148850087Y-94550087D02*
X148850087Y-89024913D01*
X148850087Y-89024913D02*
X149000000Y-88875000D01*
X149000000Y-88875000D02*
X149800000Y-88875000D01*
X143700000Y-98050000D02*
X143700000Y-102550000D01*
X149800000Y-87575000D02*
X149000000Y-87575000D01*
X149000000Y-87575000D02*
X148350076Y-88224924D01*
X148350076Y-91149924D02*
X146850000Y-92650000D01*
X145799999Y-95950001D02*
X143700000Y-98050000D01*
X146850000Y-94900000D02*
X145799999Y-95950001D01*
X148350076Y-88224924D02*
X148350076Y-91149924D01*
X146850000Y-92650000D02*
X146850000Y-94900000D01*
D31*
X146900000Y-121800000D02*
X140400000Y-115300000D01*
X140400000Y-115300000D02*
X140400000Y-92292878D01*
X140400000Y-92292878D02*
X133807122Y-85700000D01*
X133807122Y-85700000D02*
X132700000Y-85700000D01*
X132700000Y-85700000D02*
X131650000Y-85700000D01*
X131540000Y-82600000D02*
X131540000Y-85590000D01*
X131540000Y-85590000D02*
X131650000Y-85700000D01*
X126050000Y-85700000D02*
X126050000Y-86350000D01*
X126050000Y-86350000D02*
X129700011Y-90000011D01*
X129700011Y-90000011D02*
X134692889Y-90000011D01*
X134692889Y-90000011D02*
X138300000Y-93607122D01*
X138300000Y-93607122D02*
X138300000Y-115400000D01*
X138300000Y-115400000D02*
X134399999Y-119300001D01*
X134399999Y-119300001D02*
X131900000Y-121800000D01*
X125940000Y-82600000D02*
X125940000Y-85590000D01*
X125940000Y-85590000D02*
X126050000Y-85700000D01*
X151025000Y-89100000D02*
X159800000Y-89100000D01*
X159800000Y-89100000D02*
X160225000Y-89525000D01*
X149800000Y-89525000D02*
X150600000Y-89525000D01*
X150600000Y-89525000D02*
X151025000Y-89100000D01*
X160225000Y-89525000D02*
X167400000Y-96700000D01*
D34*
X125200000Y-93300000D02*
X125200000Y-96380000D01*
X125200000Y-96380000D02*
X128100000Y-99280000D01*
X128100000Y-99280000D02*
X128500000Y-99280000D01*
X123049999Y-91149999D02*
X125200000Y-93300000D01*
X119200000Y-89900000D02*
X120449999Y-91149999D01*
X120449999Y-91149999D02*
X123049999Y-91149999D01*
D32*
X119200000Y-89900000D02*
X119700000Y-89900000D01*
D34*
X119200000Y-94900000D02*
X119200000Y-95300000D01*
X119200000Y-95300000D02*
X125200000Y-101300000D01*
X125200000Y-101300000D02*
X125200000Y-104000000D01*
X125200000Y-104000000D02*
X128100000Y-106900000D01*
X128100000Y-106900000D02*
X128500000Y-106900000D01*
D32*
X119200000Y-94900000D02*
X120200000Y-94900000D01*
D34*
X119200000Y-100400000D02*
X121300000Y-100400000D01*
X121300000Y-100400000D02*
X123000000Y-102100000D01*
X123000000Y-102100000D02*
X123000000Y-106880000D01*
X123000000Y-106880000D02*
X128100000Y-111980000D01*
X128100000Y-111980000D02*
X128500000Y-111980000D01*
X119200000Y-115900000D02*
X132900000Y-115900000D01*
X132900000Y-115900000D02*
X133600000Y-115200000D01*
X133600000Y-115200000D02*
X133600000Y-109020000D01*
X133600000Y-109020000D02*
X135720000Y-106900000D01*
X135720000Y-106900000D02*
X136120000Y-106900000D01*
X119200000Y-110900000D02*
X122500000Y-114200000D01*
X135720000Y-99280000D02*
X136120000Y-99280000D01*
X122500000Y-114200000D02*
X131000000Y-114200000D01*
X131000000Y-114200000D02*
X132000000Y-113200000D01*
X132000000Y-113200000D02*
X132000000Y-103000000D01*
X132000000Y-103000000D02*
X135720000Y-99280000D01*
D31*
X149800000Y-92775000D02*
X150600000Y-92775000D01*
X150600000Y-92775000D02*
X165300000Y-107475000D01*
X165300000Y-107475000D02*
X165300000Y-117700000D01*
X165300000Y-117700000D02*
X169400000Y-121800000D01*
X149800000Y-90825000D02*
X154125000Y-90825000D01*
X154125000Y-90825000D02*
X166700000Y-103400000D01*
X166700000Y-103400000D02*
X166700000Y-103900000D01*
X149800000Y-90175000D02*
X150925000Y-90175000D01*
X150925000Y-90175000D02*
X151200000Y-89900000D01*
X151200000Y-89900000D02*
X155600000Y-89900000D01*
X155600000Y-89900000D02*
X169240000Y-103540000D01*
X169240000Y-103540000D02*
X169240000Y-103900000D01*
X149800000Y-91475000D02*
X152975000Y-91475000D01*
X152975000Y-91475000D02*
X165486399Y-103986399D01*
X165486399Y-103986399D02*
X165486399Y-105196001D01*
X165486399Y-105196001D02*
X165556399Y-105266001D01*
X165556399Y-105266001D02*
X166266001Y-105266001D01*
X166266001Y-105266001D02*
X167800000Y-106800000D01*
X167800000Y-106800000D02*
X167800000Y-109200000D01*
X149800000Y-92125000D02*
X151525000Y-92125000D01*
X151525000Y-92125000D02*
X166586399Y-107186399D01*
X166586399Y-107186399D02*
X166586399Y-112170399D01*
X166586399Y-112170399D02*
X167900000Y-113484000D01*
X167900000Y-113484000D02*
X167900000Y-114800000D01*
X141850000Y-87800000D02*
X141850000Y-86750000D01*
X141850000Y-86750000D02*
X142100000Y-86500000D01*
X142100000Y-87550000D02*
X141850000Y-87800000D01*
X172500000Y-89400000D02*
X167200000Y-84100000D01*
X176150000Y-87900000D02*
X174650000Y-89400000D01*
X167200000Y-84100000D02*
X151619253Y-84100000D01*
X149329362Y-86389891D02*
X149029363Y-86689890D01*
X151619253Y-84100000D02*
X149329362Y-86389891D01*
X176250000Y-87900000D02*
X176150000Y-87900000D01*
X174650000Y-89400000D02*
X172500000Y-89400000D01*
X144000000Y-93425000D02*
X143200000Y-93425000D01*
X143200000Y-93425000D02*
X141850000Y-92075000D01*
X141850000Y-92075000D02*
X141850000Y-89225000D01*
X141850000Y-89225000D02*
X141850000Y-88300000D01*
X139400000Y-121800000D02*
X139400000Y-121100000D01*
X139400000Y-121100000D02*
X139000000Y-120700000D01*
X139000000Y-120700000D02*
X139300000Y-120400000D01*
X139300000Y-120400000D02*
X139300000Y-92900000D01*
X139300000Y-92900000D02*
X134600000Y-88200000D01*
X134600000Y-88200000D02*
X132119998Y-88200000D01*
X132119998Y-88200000D02*
X130270000Y-86350002D01*
X130270000Y-86350002D02*
X130270000Y-83650570D01*
X130270000Y-83650570D02*
X130270000Y-82600000D01*
X130900000Y-80700000D02*
X130270000Y-81330000D01*
X130270000Y-81330000D02*
X130270000Y-82600000D01*
X134125000Y-80700000D02*
X130900000Y-80700000D01*
X141850000Y-88300000D02*
X141725000Y-88300000D01*
X141725000Y-88300000D02*
X134125000Y-80700000D01*
X141850000Y-88300000D02*
X143925000Y-88300000D01*
X143925000Y-88300000D02*
X144000000Y-88225000D01*
D33*
X128300000Y-84200000D02*
X129920570Y-84200000D01*
X129920570Y-84200000D02*
X130270000Y-83850570D01*
X130270000Y-83850570D02*
X130270000Y-82600000D01*
X127800000Y-83700000D02*
X128300000Y-84200000D01*
X127800000Y-81100000D02*
X127800000Y-83700000D01*
X128950000Y-78800000D02*
X128950000Y-79950000D01*
X128950000Y-79950000D02*
X127800000Y-81100000D01*
X120300000Y-84300000D02*
X120000000Y-84000000D01*
X120000000Y-84000000D02*
X120000000Y-82050000D01*
X124220570Y-84300000D02*
X120300000Y-84300000D01*
X124670000Y-82600000D02*
X124670000Y-83850570D01*
X124670000Y-83850570D02*
X124220570Y-84300000D01*
X120000000Y-82050000D02*
X121150000Y-82050000D01*
X121150000Y-82050000D02*
X123250000Y-79950000D01*
X123250000Y-79950000D02*
X123250000Y-78800000D01*
D35*
G36*
X177335590Y-71054202D02*
X178082276Y-71553122D01*
X178581196Y-72299810D01*
X178769813Y-73248052D01*
X178769813Y-76860757D01*
X178176987Y-76614594D01*
X177526746Y-76614026D01*
X176925785Y-76862338D01*
X176465594Y-77321727D01*
X176216234Y-77922253D01*
X176215666Y-78572494D01*
X176463978Y-79173455D01*
X176923367Y-79633646D01*
X177523893Y-79883006D01*
X178174134Y-79883574D01*
X178769813Y-79637444D01*
X178769813Y-83363157D01*
X178176987Y-83116994D01*
X177526746Y-83116426D01*
X176925785Y-83364738D01*
X176465594Y-83824127D01*
X176216234Y-84424653D01*
X176215666Y-85074894D01*
X176463978Y-85675855D01*
X176923367Y-86136046D01*
X177523893Y-86385406D01*
X178174134Y-86385974D01*
X178769813Y-86139844D01*
X178769813Y-123113118D01*
X178581196Y-124061360D01*
X178082276Y-124808048D01*
X177335590Y-125306968D01*
X176387346Y-125495585D01*
X172547440Y-125495585D01*
X172547440Y-122680585D01*
X173894813Y-122680585D01*
X174051621Y-123468913D01*
X174498173Y-124137225D01*
X175166485Y-124583777D01*
X175954813Y-124740585D01*
X176743141Y-124583777D01*
X177411453Y-124137225D01*
X177858005Y-123468913D01*
X178014813Y-122680585D01*
X177858005Y-121892257D01*
X177411453Y-121223945D01*
X176743141Y-120777393D01*
X175954813Y-120620585D01*
X175166485Y-120777393D01*
X174498173Y-121223945D01*
X174051621Y-121892257D01*
X173894813Y-122680585D01*
X172547440Y-122680585D01*
X172547440Y-121800000D01*
X172535058Y-121734197D01*
X172535543Y-121179146D01*
X172059273Y-120026485D01*
X171178153Y-119143826D01*
X170026326Y-118665546D01*
X168779146Y-118664457D01*
X167785274Y-119075116D01*
X166085000Y-117374842D01*
X166085000Y-112779158D01*
X166609780Y-113303938D01*
X166584959Y-113319910D01*
X166439969Y-113532110D01*
X166388960Y-113784000D01*
X166388960Y-115816000D01*
X166433238Y-116051317D01*
X166572310Y-116267441D01*
X166784510Y-116412431D01*
X167036400Y-116463440D01*
X168763600Y-116463440D01*
X168998917Y-116419162D01*
X169215041Y-116280090D01*
X169360031Y-116067890D01*
X169379232Y-115973073D01*
X169537964Y-116150732D01*
X170065209Y-116404709D01*
X170080974Y-116407358D01*
X170313000Y-116286217D01*
X170313000Y-114927000D01*
X170293000Y-114927000D01*
X170293000Y-114673000D01*
X170313000Y-114673000D01*
X170313000Y-113313783D01*
X170567000Y-113313783D01*
X170567000Y-114673000D01*
X170587000Y-114673000D01*
X170587000Y-114927000D01*
X170567000Y-114927000D01*
X170567000Y-116286217D01*
X170799026Y-116407358D01*
X170814791Y-116404709D01*
X171342036Y-116150732D01*
X171713539Y-115734931D01*
X171920330Y-116044415D01*
X172406511Y-116369271D01*
X172980000Y-116483345D01*
X173553489Y-116369271D01*
X174039670Y-116044415D01*
X174364526Y-115558234D01*
X174478600Y-114984745D01*
X174478600Y-114615255D01*
X174364526Y-114041766D01*
X174039670Y-113555585D01*
X173553489Y-113230729D01*
X172980000Y-113116655D01*
X172406511Y-113230729D01*
X171920330Y-113555585D01*
X171713539Y-113865069D01*
X171342036Y-113449268D01*
X170814791Y-113195291D01*
X170799026Y-113192642D01*
X170567000Y-113313783D01*
X170313000Y-113313783D01*
X170080974Y-113192642D01*
X170065209Y-113195291D01*
X169537964Y-113449268D01*
X169381093Y-113624845D01*
X169366762Y-113548683D01*
X169227690Y-113332559D01*
X169015490Y-113187569D01*
X168763600Y-113136560D01*
X168593819Y-113136560D01*
X168455079Y-112928921D01*
X167371399Y-111845241D01*
X167371399Y-110863440D01*
X168663600Y-110863440D01*
X168898917Y-110819162D01*
X169115041Y-110680090D01*
X169260031Y-110467890D01*
X169279232Y-110373073D01*
X169437964Y-110550732D01*
X169965209Y-110804709D01*
X169980974Y-110807358D01*
X170213000Y-110686217D01*
X170213000Y-109327000D01*
X170193000Y-109327000D01*
X170193000Y-109073000D01*
X170213000Y-109073000D01*
X170213000Y-107713783D01*
X170467000Y-107713783D01*
X170467000Y-109073000D01*
X170487000Y-109073000D01*
X170487000Y-109327000D01*
X170467000Y-109327000D01*
X170467000Y-110686217D01*
X170699026Y-110807358D01*
X170714791Y-110804709D01*
X171242036Y-110550732D01*
X171613539Y-110134931D01*
X171820330Y-110444415D01*
X172306511Y-110769271D01*
X172880000Y-110883345D01*
X173453489Y-110769271D01*
X173939670Y-110444415D01*
X174264526Y-109958234D01*
X174378600Y-109384745D01*
X174378600Y-109015255D01*
X174264526Y-108441766D01*
X173939670Y-107955585D01*
X173453489Y-107630729D01*
X172880000Y-107516655D01*
X172306511Y-107630729D01*
X171820330Y-107955585D01*
X171613539Y-108265069D01*
X171242036Y-107849268D01*
X170714791Y-107595291D01*
X170699026Y-107592642D01*
X170467000Y-107713783D01*
X170213000Y-107713783D01*
X169980974Y-107592642D01*
X169965209Y-107595291D01*
X169437964Y-107849268D01*
X169281093Y-108024845D01*
X169266762Y-107948683D01*
X169127690Y-107732559D01*
X168915490Y-107587569D01*
X168663600Y-107536560D01*
X168585000Y-107536560D01*
X168585000Y-106800000D01*
X168575006Y-106749755D01*
X168525245Y-106499593D01*
X168355079Y-106244921D01*
X167656178Y-105546020D01*
X167798917Y-105519162D01*
X168015041Y-105380090D01*
X168160031Y-105167890D01*
X168168400Y-105126561D01*
X168180330Y-105144415D01*
X168666511Y-105469271D01*
X169240000Y-105583345D01*
X169813489Y-105469271D01*
X170299670Y-105144415D01*
X170506461Y-104834931D01*
X170877964Y-105250732D01*
X171405209Y-105504709D01*
X171420974Y-105507358D01*
X171653000Y-105386217D01*
X171653000Y-104027000D01*
X171633000Y-104027000D01*
X171633000Y-103773000D01*
X171653000Y-103773000D01*
X171653000Y-102413783D01*
X171907000Y-102413783D01*
X171907000Y-103773000D01*
X171927000Y-103773000D01*
X171927000Y-104027000D01*
X171907000Y-104027000D01*
X171907000Y-105386217D01*
X172139026Y-105507358D01*
X172154791Y-105504709D01*
X172682036Y-105250732D01*
X173053539Y-104834931D01*
X173260330Y-105144415D01*
X173746511Y-105469271D01*
X174320000Y-105583345D01*
X174893489Y-105469271D01*
X175379670Y-105144415D01*
X175704526Y-104658234D01*
X175818600Y-104084745D01*
X175818600Y-103715255D01*
X175704526Y-103141766D01*
X175379670Y-102655585D01*
X174893489Y-102330729D01*
X174320000Y-102216655D01*
X173746511Y-102330729D01*
X173260330Y-102655585D01*
X173053539Y-102965069D01*
X172682036Y-102549268D01*
X172154791Y-102295291D01*
X172139026Y-102292642D01*
X171907000Y-102413783D01*
X171653000Y-102413783D01*
X171420974Y-102292642D01*
X171405209Y-102295291D01*
X170877964Y-102549268D01*
X170506461Y-102965069D01*
X170299670Y-102655585D01*
X169813489Y-102330729D01*
X169240000Y-102216655D01*
X169062183Y-102252025D01*
X156695158Y-89885000D01*
X159474842Y-89885000D01*
X166005443Y-96415601D01*
X166003243Y-96420900D01*
X166002758Y-96976661D01*
X166214990Y-97490303D01*
X166607630Y-97883629D01*
X167120900Y-98096757D01*
X167676661Y-98097242D01*
X168190303Y-97885010D01*
X168400021Y-97675658D01*
X168607630Y-97883629D01*
X169120900Y-98096757D01*
X169676661Y-98097242D01*
X170190303Y-97885010D01*
X170395457Y-97680213D01*
X170599392Y-97680213D01*
X170668857Y-97922397D01*
X171192302Y-98109144D01*
X171747368Y-98081362D01*
X172131143Y-97922397D01*
X172200608Y-97680213D01*
X171400000Y-96879605D01*
X170599392Y-97680213D01*
X170395457Y-97680213D01*
X170583629Y-97492370D01*
X170694122Y-97226273D01*
X171220395Y-96700000D01*
X171579605Y-96700000D01*
X172105907Y-97226302D01*
X172214990Y-97490303D01*
X172607630Y-97883629D01*
X173120900Y-98096757D01*
X173676661Y-98097242D01*
X174190303Y-97885010D01*
X174583629Y-97492370D01*
X174796757Y-96979100D01*
X174797242Y-96423339D01*
X174585010Y-95909697D01*
X174192370Y-95516371D01*
X173679100Y-95303243D01*
X173123339Y-95302758D01*
X172609697Y-95514990D01*
X172216371Y-95907630D01*
X172105878Y-96173727D01*
X171579605Y-96700000D01*
X171220395Y-96700000D01*
X170694093Y-96173698D01*
X170585010Y-95909697D01*
X170395432Y-95719787D01*
X170599392Y-95719787D01*
X171400000Y-96520395D01*
X172200608Y-95719787D01*
X172131143Y-95477603D01*
X171607698Y-95290856D01*
X171052632Y-95318638D01*
X170668857Y-95477603D01*
X170599392Y-95719787D01*
X170395432Y-95719787D01*
X170192370Y-95516371D01*
X169679100Y-95303243D01*
X169123339Y-95302758D01*
X168609697Y-95514990D01*
X168399979Y-95724342D01*
X168192370Y-95516371D01*
X167679100Y-95303243D01*
X167123339Y-95302758D01*
X167115963Y-95305805D01*
X162094158Y-90284000D01*
X166288960Y-90284000D01*
X166288960Y-92316000D01*
X166333238Y-92551317D01*
X166472310Y-92767441D01*
X166684510Y-92912431D01*
X166936400Y-92963440D01*
X168663600Y-92963440D01*
X168898917Y-92919162D01*
X169115041Y-92780090D01*
X169260031Y-92567890D01*
X169279232Y-92473073D01*
X169437964Y-92650732D01*
X169965209Y-92904709D01*
X169980974Y-92907358D01*
X170213000Y-92786217D01*
X170213000Y-91427000D01*
X170193000Y-91427000D01*
X170193000Y-91173000D01*
X170213000Y-91173000D01*
X170213000Y-89813783D01*
X169980974Y-89692642D01*
X169965209Y-89695291D01*
X169437964Y-89949268D01*
X169281093Y-90124845D01*
X169266762Y-90048683D01*
X169127690Y-89832559D01*
X168915490Y-89687569D01*
X168663600Y-89636560D01*
X166936400Y-89636560D01*
X166701083Y-89680838D01*
X166484959Y-89819910D01*
X166339969Y-90032110D01*
X166288960Y-90284000D01*
X162094158Y-90284000D01*
X160355079Y-88544921D01*
X160100407Y-88374755D01*
X159800000Y-88315000D01*
X155847440Y-88315000D01*
X155847440Y-87175000D01*
X155803162Y-86939683D01*
X155664090Y-86723559D01*
X155451890Y-86578569D01*
X155235000Y-86534648D01*
X155235000Y-86250000D01*
X155234871Y-86249350D01*
X155235162Y-85914833D01*
X155093117Y-85571057D01*
X154830327Y-85307808D01*
X154486799Y-85165162D01*
X154114833Y-85164838D01*
X153771057Y-85306883D01*
X153507808Y-85569673D01*
X153365162Y-85913201D01*
X153364838Y-86285167D01*
X153481946Y-86568590D01*
X153464683Y-86571838D01*
X153248559Y-86710910D01*
X153202031Y-86779006D01*
X153059698Y-86636673D01*
X152826309Y-86540000D01*
X152235750Y-86540000D01*
X152077000Y-86698750D01*
X152077000Y-87673000D01*
X152097000Y-87673000D01*
X152097000Y-87927000D01*
X152077000Y-87927000D01*
X152077000Y-87947000D01*
X151823000Y-87947000D01*
X151823000Y-87927000D01*
X151803000Y-87927000D01*
X151803000Y-87673000D01*
X151823000Y-87673000D01*
X151823000Y-86698750D01*
X151664250Y-86540000D01*
X151073691Y-86540000D01*
X150840302Y-86636673D01*
X150661673Y-86815301D01*
X150649315Y-86845136D01*
X150551890Y-86778569D01*
X150300000Y-86727560D01*
X150101851Y-86727560D01*
X151944411Y-84885000D01*
X166874842Y-84885000D01*
X171944921Y-89955079D01*
X171957834Y-89963707D01*
X171820330Y-90055585D01*
X171613539Y-90365069D01*
X171242036Y-89949268D01*
X170714791Y-89695291D01*
X170699026Y-89692642D01*
X170467000Y-89813783D01*
X170467000Y-91173000D01*
X170487000Y-91173000D01*
X170487000Y-91427000D01*
X170467000Y-91427000D01*
X170467000Y-92786217D01*
X170699026Y-92907358D01*
X170714791Y-92904709D01*
X171242036Y-92650732D01*
X171613539Y-92234931D01*
X171820330Y-92544415D01*
X172306511Y-92869271D01*
X172880000Y-92983345D01*
X173453489Y-92869271D01*
X173939670Y-92544415D01*
X174264526Y-92058234D01*
X174378600Y-91484745D01*
X174378600Y-91115255D01*
X174264526Y-90541766D01*
X174026142Y-90185000D01*
X174650000Y-90185000D01*
X174950407Y-90125245D01*
X175205079Y-89955079D01*
X175962718Y-89197440D01*
X177000000Y-89197440D01*
X177235317Y-89153162D01*
X177451441Y-89014090D01*
X177596431Y-88801890D01*
X177647440Y-88550000D01*
X177647440Y-87250000D01*
X177603162Y-87014683D01*
X177464090Y-86798559D01*
X177251890Y-86653569D01*
X177000000Y-86602560D01*
X175500000Y-86602560D01*
X175264683Y-86646838D01*
X175048559Y-86785910D01*
X174903569Y-86998110D01*
X174900919Y-87011197D01*
X174764090Y-86798559D01*
X174551890Y-86653569D01*
X174300000Y-86602560D01*
X174134560Y-86602560D01*
X174134560Y-86195366D01*
X174274215Y-86137662D01*
X174734406Y-85678273D01*
X174983766Y-85077747D01*
X174984334Y-84427506D01*
X174736022Y-83826545D01*
X174276633Y-83366354D01*
X173676107Y-83116994D01*
X173025866Y-83116426D01*
X172424905Y-83364738D01*
X171964714Y-83824127D01*
X171715354Y-84424653D01*
X171714786Y-85074894D01*
X171963098Y-85675855D01*
X172422487Y-86136046D01*
X172564560Y-86195040D01*
X172564560Y-86646917D01*
X172348559Y-86785910D01*
X172203569Y-86998110D01*
X172152560Y-87250000D01*
X172152560Y-87942402D01*
X168174674Y-83964516D01*
X168223341Y-83984724D01*
X168853893Y-83985275D01*
X169436657Y-83744481D01*
X169882914Y-83299003D01*
X170124724Y-82716659D01*
X170125275Y-82086107D01*
X169884481Y-81503343D01*
X169439003Y-81057086D01*
X168856659Y-80815276D01*
X168226107Y-80814725D01*
X168112022Y-80861864D01*
X166835000Y-79584842D01*
X166835000Y-79390854D01*
X167035317Y-79353162D01*
X167251441Y-79214090D01*
X167396431Y-79001890D01*
X167399081Y-78988803D01*
X167535910Y-79201441D01*
X167748110Y-79346431D01*
X168000000Y-79397440D01*
X169500000Y-79397440D01*
X169735317Y-79353162D01*
X169951441Y-79214090D01*
X170096431Y-79001890D01*
X170147440Y-78750000D01*
X170147440Y-78572494D01*
X171714786Y-78572494D01*
X171963098Y-79173455D01*
X172422487Y-79633646D01*
X173023013Y-79883006D01*
X173673254Y-79883574D01*
X174274215Y-79635262D01*
X174734406Y-79175873D01*
X174983766Y-78575347D01*
X174984334Y-77925106D01*
X174736022Y-77324145D01*
X174276633Y-76863954D01*
X173676107Y-76614594D01*
X173025866Y-76614026D01*
X172424905Y-76862338D01*
X171964714Y-77321727D01*
X171715354Y-77922253D01*
X171714786Y-78572494D01*
X170147440Y-78572494D01*
X170147440Y-77450000D01*
X170103162Y-77214683D01*
X169982691Y-77027467D01*
X170201478Y-76808680D01*
X170371644Y-76554007D01*
X170395216Y-76435508D01*
X170860000Y-76527959D01*
X171433489Y-76413885D01*
X171919670Y-76089029D01*
X172244526Y-75602848D01*
X172358600Y-75029359D01*
X172358600Y-74970641D01*
X172244526Y-74397152D01*
X171919670Y-73910971D01*
X171648828Y-73730000D01*
X171722782Y-73680585D01*
X173894813Y-73680585D01*
X174051621Y-74468913D01*
X174498173Y-75137225D01*
X175166485Y-75583777D01*
X175954813Y-75740585D01*
X176743141Y-75583777D01*
X177411453Y-75137225D01*
X177858005Y-74468913D01*
X178014813Y-73680585D01*
X177858005Y-72892257D01*
X177411453Y-72223945D01*
X176743141Y-71777393D01*
X175954813Y-71620585D01*
X175166485Y-71777393D01*
X174498173Y-72223945D01*
X174051621Y-72892257D01*
X173894813Y-73680585D01*
X171722782Y-73680585D01*
X171919670Y-73549029D01*
X172244526Y-73062848D01*
X172358600Y-72489359D01*
X172358600Y-72430641D01*
X172244526Y-71857152D01*
X171919670Y-71370971D01*
X171433489Y-71046115D01*
X170860000Y-70932041D01*
X170286511Y-71046115D01*
X169800330Y-71370971D01*
X169590000Y-71685752D01*
X169379670Y-71370971D01*
X168893489Y-71046115D01*
X168320000Y-70932041D01*
X167746511Y-71046115D01*
X167260330Y-71370971D01*
X167050000Y-71685752D01*
X166839670Y-71370971D01*
X166353489Y-71046115D01*
X165780000Y-70932041D01*
X165206511Y-71046115D01*
X164720330Y-71370971D01*
X164510000Y-71685752D01*
X164299670Y-71370971D01*
X163813489Y-71046115D01*
X163240000Y-70932041D01*
X162666511Y-71046115D01*
X162180330Y-71370971D01*
X161970000Y-71685752D01*
X161759670Y-71370971D01*
X161273489Y-71046115D01*
X160700000Y-70932041D01*
X160126511Y-71046115D01*
X159640330Y-71370971D01*
X159430000Y-71685752D01*
X159219670Y-71370971D01*
X158733489Y-71046115D01*
X158160000Y-70932041D01*
X157586511Y-71046115D01*
X157100330Y-71370971D01*
X156890000Y-71685752D01*
X156679670Y-71370971D01*
X156193489Y-71046115D01*
X155620000Y-70932041D01*
X155046511Y-71046115D01*
X154560330Y-71370971D01*
X154350000Y-71685752D01*
X154139670Y-71370971D01*
X153653489Y-71046115D01*
X153080000Y-70932041D01*
X152506511Y-71046115D01*
X152020330Y-71370971D01*
X151810000Y-71685752D01*
X151599670Y-71370971D01*
X151113489Y-71046115D01*
X150540000Y-70932041D01*
X149966511Y-71046115D01*
X149480330Y-71370971D01*
X149270000Y-71685752D01*
X149059670Y-71370971D01*
X148573489Y-71046115D01*
X148000000Y-70932041D01*
X147426511Y-71046115D01*
X146940330Y-71370971D01*
X146730000Y-71685752D01*
X146519670Y-71370971D01*
X146033489Y-71046115D01*
X145460000Y-70932041D01*
X144886511Y-71046115D01*
X144400330Y-71370971D01*
X144190000Y-71685752D01*
X143979670Y-71370971D01*
X143493489Y-71046115D01*
X142920000Y-70932041D01*
X142346511Y-71046115D01*
X141860330Y-71370971D01*
X141650000Y-71685752D01*
X141439670Y-71370971D01*
X140953489Y-71046115D01*
X140380000Y-70932041D01*
X139806511Y-71046115D01*
X139320330Y-71370971D01*
X139110000Y-71685752D01*
X138899670Y-71370971D01*
X138413489Y-71046115D01*
X137840000Y-70932041D01*
X137266511Y-71046115D01*
X136780330Y-71370971D01*
X136570000Y-71685752D01*
X136359670Y-71370971D01*
X135873489Y-71046115D01*
X135300000Y-70932041D01*
X134726511Y-71046115D01*
X134240330Y-71370971D01*
X134030000Y-71685752D01*
X133819670Y-71370971D01*
X133333489Y-71046115D01*
X132760000Y-70932041D01*
X132186511Y-71046115D01*
X131700330Y-71370971D01*
X131490000Y-71685752D01*
X131279670Y-71370971D01*
X130793489Y-71046115D01*
X130220000Y-70932041D01*
X129646511Y-71046115D01*
X129160330Y-71370971D01*
X128950000Y-71685752D01*
X128739670Y-71370971D01*
X128253489Y-71046115D01*
X127680000Y-70932041D01*
X127106511Y-71046115D01*
X126620330Y-71370971D01*
X126410000Y-71685752D01*
X126199670Y-71370971D01*
X125713489Y-71046115D01*
X125140000Y-70932041D01*
X124566511Y-71046115D01*
X124080330Y-71370971D01*
X123944002Y-71575000D01*
X123795998Y-71575000D01*
X123659670Y-71370971D01*
X123173489Y-71046115D01*
X122600000Y-70932041D01*
X122026511Y-71046115D01*
X121540330Y-71370971D01*
X121215474Y-71857152D01*
X121196654Y-71951767D01*
X120274210Y-72874210D01*
X120082367Y-73161325D01*
X120082367Y-73161326D01*
X120014999Y-73500000D01*
X120015000Y-73500005D01*
X120015000Y-75733421D01*
X117795860Y-77952560D01*
X116650000Y-77952560D01*
X116414683Y-77996838D01*
X116198559Y-78135910D01*
X116053569Y-78348110D01*
X116002560Y-78600000D01*
X116002560Y-80100000D01*
X116046838Y-80335317D01*
X116185910Y-80551441D01*
X116398110Y-80696431D01*
X116431490Y-80703191D01*
X116290301Y-80761673D01*
X116111673Y-80940302D01*
X116015000Y-81173691D01*
X116015000Y-81764250D01*
X116173750Y-81923000D01*
X117173000Y-81923000D01*
X117173000Y-81903000D01*
X117427000Y-81903000D01*
X117427000Y-81923000D01*
X118426250Y-81923000D01*
X118585000Y-81764250D01*
X118585000Y-81173691D01*
X118488327Y-80940302D01*
X118309699Y-80761673D01*
X118173713Y-80705346D01*
X118185317Y-80703162D01*
X118401441Y-80564090D01*
X118546431Y-80351890D01*
X118597440Y-80100000D01*
X118597440Y-79654140D01*
X118702560Y-79549020D01*
X118702560Y-80100000D01*
X118746838Y-80335317D01*
X118885910Y-80551441D01*
X119098110Y-80696431D01*
X119111197Y-80699081D01*
X118898559Y-80835910D01*
X118753569Y-81048110D01*
X118702560Y-81300000D01*
X118702560Y-82800000D01*
X118746838Y-83035317D01*
X118885910Y-83251441D01*
X119098110Y-83396431D01*
X119115000Y-83399851D01*
X119115000Y-83999995D01*
X119114999Y-84000000D01*
X119155906Y-84205649D01*
X119182367Y-84338675D01*
X119274364Y-84476359D01*
X119374210Y-84625790D01*
X119674208Y-84925787D01*
X119674210Y-84925790D01*
X119961325Y-85117633D01*
X120017516Y-85128810D01*
X120300000Y-85185001D01*
X120300005Y-85185000D01*
X121965000Y-85185000D01*
X121965000Y-85414250D01*
X122123750Y-85573000D01*
X123223000Y-85573000D01*
X123223000Y-85553000D01*
X123477000Y-85553000D01*
X123477000Y-85573000D01*
X123497000Y-85573000D01*
X123497000Y-85827000D01*
X123477000Y-85827000D01*
X123477000Y-86826250D01*
X123635750Y-86985000D01*
X124226309Y-86985000D01*
X124459698Y-86888327D01*
X124638327Y-86709699D01*
X124694654Y-86573713D01*
X124696838Y-86585317D01*
X124835910Y-86801441D01*
X125048110Y-86946431D01*
X125300000Y-86997440D01*
X125587282Y-86997440D01*
X129144932Y-90555090D01*
X129399604Y-90725256D01*
X129700011Y-90785011D01*
X134367731Y-90785011D01*
X136347720Y-92765000D01*
X136247000Y-92765000D01*
X136247000Y-94073000D01*
X136267000Y-94073000D01*
X136267000Y-94327000D01*
X136247000Y-94327000D01*
X136247000Y-94347000D01*
X135993000Y-94347000D01*
X135993000Y-94327000D01*
X134450085Y-94327000D01*
X134328096Y-94549039D01*
X134345633Y-94631819D01*
X134615500Y-95124896D01*
X135047707Y-95472493D01*
X134669352Y-95725302D01*
X134358283Y-96190849D01*
X134249050Y-96740000D01*
X134358283Y-97289151D01*
X134669352Y-97754698D01*
X135051438Y-98010000D01*
X134669352Y-98265302D01*
X134358283Y-98730849D01*
X134282368Y-99112499D01*
X131197434Y-102197434D01*
X130951397Y-102565654D01*
X130865000Y-103000000D01*
X130865000Y-112729867D01*
X130529868Y-113065000D01*
X129845434Y-113065000D01*
X129950648Y-112994698D01*
X130261717Y-112529151D01*
X130370950Y-111980000D01*
X130261717Y-111430849D01*
X129950648Y-110965302D01*
X129568562Y-110710000D01*
X129950648Y-110454698D01*
X130261717Y-109989151D01*
X130370950Y-109440000D01*
X130261717Y-108890849D01*
X129950648Y-108425302D01*
X129568562Y-108170000D01*
X129950648Y-107914698D01*
X130261717Y-107449151D01*
X130370950Y-106900000D01*
X130261717Y-106350849D01*
X129950648Y-105885302D01*
X129568562Y-105630000D01*
X129950648Y-105374698D01*
X130261717Y-104909151D01*
X130370950Y-104360000D01*
X130261717Y-103810849D01*
X129950648Y-103345302D01*
X129568562Y-103090000D01*
X129950648Y-102834698D01*
X130261717Y-102369151D01*
X130370950Y-101820000D01*
X130261717Y-101270849D01*
X129950648Y-100805302D01*
X129568562Y-100550000D01*
X129950648Y-100294698D01*
X130261717Y-99829151D01*
X130370950Y-99280000D01*
X130261717Y-98730849D01*
X129950648Y-98265302D01*
X129568562Y-98010000D01*
X129950648Y-97754698D01*
X130261717Y-97289151D01*
X130370950Y-96740000D01*
X130261717Y-96190849D01*
X129950648Y-95725302D01*
X129815502Y-95635000D01*
X129826309Y-95635000D01*
X130059698Y-95538327D01*
X130238327Y-95359699D01*
X130335000Y-95126310D01*
X130335000Y-94485750D01*
X130176250Y-94327000D01*
X128627000Y-94327000D01*
X128627000Y-94347000D01*
X128373000Y-94347000D01*
X128373000Y-94327000D01*
X126823750Y-94327000D01*
X126665000Y-94485750D01*
X126665000Y-95126310D01*
X126761673Y-95359699D01*
X126940302Y-95538327D01*
X127173691Y-95635000D01*
X127184498Y-95635000D01*
X127049352Y-95725302D01*
X126738283Y-96190849D01*
X126717992Y-96292860D01*
X126335000Y-95909868D01*
X126335000Y-93300000D01*
X126329767Y-93273690D01*
X126665000Y-93273690D01*
X126665000Y-93914250D01*
X126823750Y-94073000D01*
X128373000Y-94073000D01*
X128373000Y-92923750D01*
X128627000Y-92923750D01*
X128627000Y-94073000D01*
X130176250Y-94073000D01*
X130335000Y-93914250D01*
X130335000Y-93850961D01*
X134328096Y-93850961D01*
X134450085Y-94073000D01*
X135993000Y-94073000D01*
X135993000Y-92765000D01*
X135593000Y-92765000D01*
X135053517Y-92922834D01*
X134615500Y-93275104D01*
X134345633Y-93768181D01*
X134328096Y-93850961D01*
X130335000Y-93850961D01*
X130335000Y-93273690D01*
X130238327Y-93040301D01*
X130059698Y-92861673D01*
X129826309Y-92765000D01*
X128785750Y-92765000D01*
X128627000Y-92923750D01*
X128373000Y-92923750D01*
X128214250Y-92765000D01*
X127173691Y-92765000D01*
X126940302Y-92861673D01*
X126761673Y-93040301D01*
X126665000Y-93273690D01*
X126329767Y-93273690D01*
X126248604Y-92865655D01*
X126002566Y-92497434D01*
X123852565Y-90347433D01*
X123813650Y-90321431D01*
X123484345Y-90101396D01*
X123049999Y-90014999D01*
X121084900Y-90014999D01*
X121085326Y-89526695D01*
X120798957Y-88833628D01*
X120269161Y-88302907D01*
X119576595Y-88015328D01*
X118826695Y-88014674D01*
X118133628Y-88301043D01*
X117602907Y-88830839D01*
X117315328Y-89523405D01*
X117314674Y-90273305D01*
X117601043Y-90966372D01*
X118130839Y-91497093D01*
X118823405Y-91784672D01*
X119480112Y-91785245D01*
X119647433Y-91952566D01*
X120015654Y-92198603D01*
X120449999Y-92284999D01*
X122579867Y-92284999D01*
X124065000Y-93770132D01*
X124065000Y-96380000D01*
X124151397Y-96814346D01*
X124397434Y-97182566D01*
X126662368Y-99447500D01*
X126738283Y-99829151D01*
X127049352Y-100294698D01*
X127431438Y-100550000D01*
X127049352Y-100805302D01*
X126738283Y-101270849D01*
X126629050Y-101820000D01*
X126738283Y-102369151D01*
X127049352Y-102834698D01*
X127431438Y-103090000D01*
X127049352Y-103345302D01*
X126738283Y-103810849D01*
X126717992Y-103912860D01*
X126335000Y-103529868D01*
X126335000Y-101300000D01*
X126248603Y-100865654D01*
X126002566Y-100497434D01*
X120995787Y-95490655D01*
X121084672Y-95276595D01*
X121085326Y-94526695D01*
X120798957Y-93833628D01*
X120269161Y-93302907D01*
X119576595Y-93015328D01*
X118826695Y-93014674D01*
X118133628Y-93301043D01*
X117602907Y-93830839D01*
X117315328Y-94523405D01*
X117314674Y-95273305D01*
X117601043Y-95966372D01*
X118130839Y-96497093D01*
X118823405Y-96784672D01*
X119079764Y-96784896D01*
X121624394Y-99329526D01*
X121300000Y-99265000D01*
X120730449Y-99265000D01*
X120269161Y-98802907D01*
X119576595Y-98515328D01*
X118826695Y-98514674D01*
X118133628Y-98801043D01*
X117602907Y-99330839D01*
X117315328Y-100023405D01*
X117314674Y-100773305D01*
X117601043Y-101466372D01*
X118130839Y-101997093D01*
X118823405Y-102284672D01*
X119573305Y-102285326D01*
X120266372Y-101998957D01*
X120731139Y-101535000D01*
X120829868Y-101535000D01*
X121865000Y-102570132D01*
X121865000Y-106880000D01*
X121951397Y-107314346D01*
X122133959Y-107587569D01*
X122197434Y-107682566D01*
X126662368Y-112147500D01*
X126738283Y-112529151D01*
X127049352Y-112994698D01*
X127154566Y-113065000D01*
X122970132Y-113065000D01*
X121084757Y-111179625D01*
X121085326Y-110526695D01*
X120798957Y-109833628D01*
X120269161Y-109302907D01*
X119576595Y-109015328D01*
X118826695Y-109014674D01*
X118133628Y-109301043D01*
X117602907Y-109830839D01*
X117315328Y-110523405D01*
X117314674Y-111273305D01*
X117601043Y-111966372D01*
X118130839Y-112497093D01*
X118823405Y-112784672D01*
X119480113Y-112785245D01*
X121459868Y-114765000D01*
X120730449Y-114765000D01*
X120269161Y-114302907D01*
X119576595Y-114015328D01*
X118826695Y-114014674D01*
X118133628Y-114301043D01*
X117602907Y-114830839D01*
X117315328Y-115523405D01*
X117314674Y-116273305D01*
X117601043Y-116966372D01*
X118130839Y-117497093D01*
X118823405Y-117784672D01*
X119573305Y-117785326D01*
X120266372Y-117498957D01*
X120731139Y-117035000D01*
X132900000Y-117035000D01*
X133334346Y-116948603D01*
X133702566Y-116702566D01*
X134402566Y-116002567D01*
X134648603Y-115634346D01*
X134655354Y-115600406D01*
X134735000Y-115200000D01*
X134735000Y-113001002D01*
X135053517Y-113257166D01*
X135593000Y-113415000D01*
X135993000Y-113415000D01*
X135993000Y-112107000D01*
X135973000Y-112107000D01*
X135973000Y-111853000D01*
X135993000Y-111853000D01*
X135993000Y-111833000D01*
X136247000Y-111833000D01*
X136247000Y-111853000D01*
X136267000Y-111853000D01*
X136267000Y-112107000D01*
X136247000Y-112107000D01*
X136247000Y-113415000D01*
X136647000Y-113415000D01*
X137186483Y-113257166D01*
X137515000Y-112992960D01*
X137515000Y-115074842D01*
X133844920Y-118744922D01*
X133844918Y-118744925D01*
X133514127Y-119075716D01*
X132526326Y-118665546D01*
X131279146Y-118664457D01*
X130126485Y-119140727D01*
X129243826Y-120021847D01*
X128765546Y-121173674D01*
X128765053Y-121738308D01*
X128752560Y-121800000D01*
X128752560Y-125495585D01*
X127535000Y-125495585D01*
X127535000Y-124085750D01*
X127376250Y-123927000D01*
X126706608Y-123927000D01*
X126635882Y-123856274D01*
X126910884Y-123673000D01*
X127376250Y-123673000D01*
X127535000Y-123514250D01*
X127535000Y-122422819D01*
X127535294Y-122422108D01*
X127535000Y-121799577D01*
X127535000Y-121673690D01*
X127534940Y-121673546D01*
X127534705Y-121174928D01*
X127058564Y-120025421D01*
X126635880Y-119743725D01*
X125214605Y-121165000D01*
X124855395Y-121165000D01*
X126456275Y-119564120D01*
X126174579Y-119141436D01*
X125022108Y-118664706D01*
X123774928Y-118665295D01*
X122625421Y-119141436D01*
X122343725Y-119564120D01*
X123944605Y-121165000D01*
X123585395Y-121165000D01*
X122164120Y-119743725D01*
X121741436Y-120025421D01*
X121264706Y-121177892D01*
X121265000Y-121800000D01*
X121265000Y-123514250D01*
X121423750Y-123673000D01*
X121889116Y-123673000D01*
X122164118Y-123856274D01*
X122093392Y-123927000D01*
X121423750Y-123927000D01*
X121265000Y-124085750D01*
X121265000Y-125495585D01*
X117522280Y-125495585D01*
X116574038Y-125306968D01*
X115827350Y-124808048D01*
X115328430Y-124061362D01*
X115139813Y-123113118D01*
X115139813Y-122680585D01*
X115894813Y-122680585D01*
X116051621Y-123468913D01*
X116498173Y-124137225D01*
X117166485Y-124583777D01*
X117954813Y-124740585D01*
X118743141Y-124583777D01*
X119411453Y-124137225D01*
X119858005Y-123468913D01*
X120014813Y-122680585D01*
X119858005Y-121892257D01*
X119411453Y-121223945D01*
X118743141Y-120777393D01*
X117954813Y-120620585D01*
X117166485Y-120777393D01*
X116498173Y-121223945D01*
X116051621Y-121892257D01*
X115894813Y-122680585D01*
X115139813Y-122680585D01*
X115139813Y-105773305D01*
X117314674Y-105773305D01*
X117601043Y-106466372D01*
X118130839Y-106997093D01*
X118823405Y-107284672D01*
X119573305Y-107285326D01*
X120266372Y-106998957D01*
X120797093Y-106469161D01*
X121084672Y-105776595D01*
X121085326Y-105026695D01*
X120798957Y-104333628D01*
X120269161Y-103802907D01*
X119576595Y-103515328D01*
X118826695Y-103514674D01*
X118133628Y-103801043D01*
X117602907Y-104330839D01*
X117315328Y-105023405D01*
X117314674Y-105773305D01*
X115139813Y-105773305D01*
X115139813Y-85985750D01*
X121965000Y-85985750D01*
X121965000Y-86476310D01*
X122061673Y-86709699D01*
X122240302Y-86888327D01*
X122473691Y-86985000D01*
X123064250Y-86985000D01*
X123223000Y-86826250D01*
X123223000Y-85827000D01*
X122123750Y-85827000D01*
X121965000Y-85985750D01*
X115139813Y-85985750D01*
X115139813Y-82335750D01*
X116015000Y-82335750D01*
X116015000Y-82926309D01*
X116111673Y-83159698D01*
X116290301Y-83338327D01*
X116523690Y-83435000D01*
X117014250Y-83435000D01*
X117173000Y-83276250D01*
X117173000Y-82177000D01*
X117427000Y-82177000D01*
X117427000Y-83276250D01*
X117585750Y-83435000D01*
X118076310Y-83435000D01*
X118309699Y-83338327D01*
X118488327Y-83159698D01*
X118585000Y-82926309D01*
X118585000Y-82335750D01*
X118426250Y-82177000D01*
X117427000Y-82177000D01*
X117173000Y-82177000D01*
X116173750Y-82177000D01*
X116015000Y-82335750D01*
X115139813Y-82335750D01*
X115139813Y-73680585D01*
X115894824Y-73680585D01*
X116051632Y-74468913D01*
X116498184Y-75137225D01*
X117166496Y-75583777D01*
X117954824Y-75740585D01*
X118743152Y-75583777D01*
X119411464Y-75137225D01*
X119858016Y-74468913D01*
X120014824Y-73680585D01*
X119858016Y-72892257D01*
X119411464Y-72223945D01*
X118743152Y-71777393D01*
X117954824Y-71620585D01*
X117166496Y-71777393D01*
X116498184Y-72223945D01*
X116051632Y-72892257D01*
X115894824Y-73680585D01*
X115139813Y-73680585D01*
X115139813Y-73248052D01*
X115328430Y-72299808D01*
X115827350Y-71553122D01*
X116574038Y-71054202D01*
X117522280Y-70865585D01*
X176387346Y-70865585D01*
X177335590Y-71054202D01*
X177335590Y-71054202D01*
G37*
X177335590Y-71054202D02*
X178082276Y-71553122D01*
X178581196Y-72299810D01*
X178769813Y-73248052D01*
X178769813Y-76860757D01*
X178176987Y-76614594D01*
X177526746Y-76614026D01*
X176925785Y-76862338D01*
X176465594Y-77321727D01*
X176216234Y-77922253D01*
X176215666Y-78572494D01*
X176463978Y-79173455D01*
X176923367Y-79633646D01*
X177523893Y-79883006D01*
X178174134Y-79883574D01*
X178769813Y-79637444D01*
X178769813Y-83363157D01*
X178176987Y-83116994D01*
X177526746Y-83116426D01*
X176925785Y-83364738D01*
X176465594Y-83824127D01*
X176216234Y-84424653D01*
X176215666Y-85074894D01*
X176463978Y-85675855D01*
X176923367Y-86136046D01*
X177523893Y-86385406D01*
X178174134Y-86385974D01*
X178769813Y-86139844D01*
X178769813Y-123113118D01*
X178581196Y-124061360D01*
X178082276Y-124808048D01*
X177335590Y-125306968D01*
X176387346Y-125495585D01*
X172547440Y-125495585D01*
X172547440Y-122680585D01*
X173894813Y-122680585D01*
X174051621Y-123468913D01*
X174498173Y-124137225D01*
X175166485Y-124583777D01*
X175954813Y-124740585D01*
X176743141Y-124583777D01*
X177411453Y-124137225D01*
X177858005Y-123468913D01*
X178014813Y-122680585D01*
X177858005Y-121892257D01*
X177411453Y-121223945D01*
X176743141Y-120777393D01*
X175954813Y-120620585D01*
X175166485Y-120777393D01*
X174498173Y-121223945D01*
X174051621Y-121892257D01*
X173894813Y-122680585D01*
X172547440Y-122680585D01*
X172547440Y-121800000D01*
X172535058Y-121734197D01*
X172535543Y-121179146D01*
X172059273Y-120026485D01*
X171178153Y-119143826D01*
X170026326Y-118665546D01*
X168779146Y-118664457D01*
X167785274Y-119075116D01*
X166085000Y-117374842D01*
X166085000Y-112779158D01*
X166609780Y-113303938D01*
X166584959Y-113319910D01*
X166439969Y-113532110D01*
X166388960Y-113784000D01*
X166388960Y-115816000D01*
X166433238Y-116051317D01*
X166572310Y-116267441D01*
X166784510Y-116412431D01*
X167036400Y-116463440D01*
X168763600Y-116463440D01*
X168998917Y-116419162D01*
X169215041Y-116280090D01*
X169360031Y-116067890D01*
X169379232Y-115973073D01*
X169537964Y-116150732D01*
X170065209Y-116404709D01*
X170080974Y-116407358D01*
X170313000Y-116286217D01*
X170313000Y-114927000D01*
X170293000Y-114927000D01*
X170293000Y-114673000D01*
X170313000Y-114673000D01*
X170313000Y-113313783D01*
X170567000Y-113313783D01*
X170567000Y-114673000D01*
X170587000Y-114673000D01*
X170587000Y-114927000D01*
X170567000Y-114927000D01*
X170567000Y-116286217D01*
X170799026Y-116407358D01*
X170814791Y-116404709D01*
X171342036Y-116150732D01*
X171713539Y-115734931D01*
X171920330Y-116044415D01*
X172406511Y-116369271D01*
X172980000Y-116483345D01*
X173553489Y-116369271D01*
X174039670Y-116044415D01*
X174364526Y-115558234D01*
X174478600Y-114984745D01*
X174478600Y-114615255D01*
X174364526Y-114041766D01*
X174039670Y-113555585D01*
X173553489Y-113230729D01*
X172980000Y-113116655D01*
X172406511Y-113230729D01*
X171920330Y-113555585D01*
X171713539Y-113865069D01*
X171342036Y-113449268D01*
X170814791Y-113195291D01*
X170799026Y-113192642D01*
X170567000Y-113313783D01*
X170313000Y-113313783D01*
X170080974Y-113192642D01*
X170065209Y-113195291D01*
X169537964Y-113449268D01*
X169381093Y-113624845D01*
X169366762Y-113548683D01*
X169227690Y-113332559D01*
X169015490Y-113187569D01*
X168763600Y-113136560D01*
X168593819Y-113136560D01*
X168455079Y-112928921D01*
X167371399Y-111845241D01*
X167371399Y-110863440D01*
X168663600Y-110863440D01*
X168898917Y-110819162D01*
X169115041Y-110680090D01*
X169260031Y-110467890D01*
X169279232Y-110373073D01*
X169437964Y-110550732D01*
X169965209Y-110804709D01*
X169980974Y-110807358D01*
X170213000Y-110686217D01*
X170213000Y-109327000D01*
X170193000Y-109327000D01*
X170193000Y-109073000D01*
X170213000Y-109073000D01*
X170213000Y-107713783D01*
X170467000Y-107713783D01*
X170467000Y-109073000D01*
X170487000Y-109073000D01*
X170487000Y-109327000D01*
X170467000Y-109327000D01*
X170467000Y-110686217D01*
X170699026Y-110807358D01*
X170714791Y-110804709D01*
X171242036Y-110550732D01*
X171613539Y-110134931D01*
X171820330Y-110444415D01*
X172306511Y-110769271D01*
X172880000Y-110883345D01*
X173453489Y-110769271D01*
X173939670Y-110444415D01*
X174264526Y-109958234D01*
X174378600Y-109384745D01*
X174378600Y-109015255D01*
X174264526Y-108441766D01*
X173939670Y-107955585D01*
X173453489Y-107630729D01*
X172880000Y-107516655D01*
X172306511Y-107630729D01*
X171820330Y-107955585D01*
X171613539Y-108265069D01*
X171242036Y-107849268D01*
X170714791Y-107595291D01*
X170699026Y-107592642D01*
X170467000Y-107713783D01*
X170213000Y-107713783D01*
X169980974Y-107592642D01*
X169965209Y-107595291D01*
X169437964Y-107849268D01*
X169281093Y-108024845D01*
X169266762Y-107948683D01*
X169127690Y-107732559D01*
X168915490Y-107587569D01*
X168663600Y-107536560D01*
X168585000Y-107536560D01*
X168585000Y-106800000D01*
X168575006Y-106749755D01*
X168525245Y-106499593D01*
X168355079Y-106244921D01*
X167656178Y-105546020D01*
X167798917Y-105519162D01*
X168015041Y-105380090D01*
X168160031Y-105167890D01*
X168168400Y-105126561D01*
X168180330Y-105144415D01*
X168666511Y-105469271D01*
X169240000Y-105583345D01*
X169813489Y-105469271D01*
X170299670Y-105144415D01*
X170506461Y-104834931D01*
X170877964Y-105250732D01*
X171405209Y-105504709D01*
X171420974Y-105507358D01*
X171653000Y-105386217D01*
X171653000Y-104027000D01*
X171633000Y-104027000D01*
X171633000Y-103773000D01*
X171653000Y-103773000D01*
X171653000Y-102413783D01*
X171907000Y-102413783D01*
X171907000Y-103773000D01*
X171927000Y-103773000D01*
X171927000Y-104027000D01*
X171907000Y-104027000D01*
X171907000Y-105386217D01*
X172139026Y-105507358D01*
X172154791Y-105504709D01*
X172682036Y-105250732D01*
X173053539Y-104834931D01*
X173260330Y-105144415D01*
X173746511Y-105469271D01*
X174320000Y-105583345D01*
X174893489Y-105469271D01*
X175379670Y-105144415D01*
X175704526Y-104658234D01*
X175818600Y-104084745D01*
X175818600Y-103715255D01*
X175704526Y-103141766D01*
X175379670Y-102655585D01*
X174893489Y-102330729D01*
X174320000Y-102216655D01*
X173746511Y-102330729D01*
X173260330Y-102655585D01*
X173053539Y-102965069D01*
X172682036Y-102549268D01*
X172154791Y-102295291D01*
X172139026Y-102292642D01*
X171907000Y-102413783D01*
X171653000Y-102413783D01*
X171420974Y-102292642D01*
X171405209Y-102295291D01*
X170877964Y-102549268D01*
X170506461Y-102965069D01*
X170299670Y-102655585D01*
X169813489Y-102330729D01*
X169240000Y-102216655D01*
X169062183Y-102252025D01*
X156695158Y-89885000D01*
X159474842Y-89885000D01*
X166005443Y-96415601D01*
X166003243Y-96420900D01*
X166002758Y-96976661D01*
X166214990Y-97490303D01*
X166607630Y-97883629D01*
X167120900Y-98096757D01*
X167676661Y-98097242D01*
X168190303Y-97885010D01*
X168400021Y-97675658D01*
X168607630Y-97883629D01*
X169120900Y-98096757D01*
X169676661Y-98097242D01*
X170190303Y-97885010D01*
X170395457Y-97680213D01*
X170599392Y-97680213D01*
X170668857Y-97922397D01*
X171192302Y-98109144D01*
X171747368Y-98081362D01*
X172131143Y-97922397D01*
X172200608Y-97680213D01*
X171400000Y-96879605D01*
X170599392Y-97680213D01*
X170395457Y-97680213D01*
X170583629Y-97492370D01*
X170694122Y-97226273D01*
X171220395Y-96700000D01*
X171579605Y-96700000D01*
X172105907Y-97226302D01*
X172214990Y-97490303D01*
X172607630Y-97883629D01*
X173120900Y-98096757D01*
X173676661Y-98097242D01*
X174190303Y-97885010D01*
X174583629Y-97492370D01*
X174796757Y-96979100D01*
X174797242Y-96423339D01*
X174585010Y-95909697D01*
X174192370Y-95516371D01*
X173679100Y-95303243D01*
X173123339Y-95302758D01*
X172609697Y-95514990D01*
X172216371Y-95907630D01*
X172105878Y-96173727D01*
X171579605Y-96700000D01*
X171220395Y-96700000D01*
X170694093Y-96173698D01*
X170585010Y-95909697D01*
X170395432Y-95719787D01*
X170599392Y-95719787D01*
X171400000Y-96520395D01*
X172200608Y-95719787D01*
X172131143Y-95477603D01*
X171607698Y-95290856D01*
X171052632Y-95318638D01*
X170668857Y-95477603D01*
X170599392Y-95719787D01*
X170395432Y-95719787D01*
X170192370Y-95516371D01*
X169679100Y-95303243D01*
X169123339Y-95302758D01*
X168609697Y-95514990D01*
X168399979Y-95724342D01*
X168192370Y-95516371D01*
X167679100Y-95303243D01*
X167123339Y-95302758D01*
X167115963Y-95305805D01*
X162094158Y-90284000D01*
X166288960Y-90284000D01*
X166288960Y-92316000D01*
X166333238Y-92551317D01*
X166472310Y-92767441D01*
X166684510Y-92912431D01*
X166936400Y-92963440D01*
X168663600Y-92963440D01*
X168898917Y-92919162D01*
X169115041Y-92780090D01*
X169260031Y-92567890D01*
X169279232Y-92473073D01*
X169437964Y-92650732D01*
X169965209Y-92904709D01*
X169980974Y-92907358D01*
X170213000Y-92786217D01*
X170213000Y-91427000D01*
X170193000Y-91427000D01*
X170193000Y-91173000D01*
X170213000Y-91173000D01*
X170213000Y-89813783D01*
X169980974Y-89692642D01*
X169965209Y-89695291D01*
X169437964Y-89949268D01*
X169281093Y-90124845D01*
X169266762Y-90048683D01*
X169127690Y-89832559D01*
X168915490Y-89687569D01*
X168663600Y-89636560D01*
X166936400Y-89636560D01*
X166701083Y-89680838D01*
X166484959Y-89819910D01*
X166339969Y-90032110D01*
X166288960Y-90284000D01*
X162094158Y-90284000D01*
X160355079Y-88544921D01*
X160100407Y-88374755D01*
X159800000Y-88315000D01*
X155847440Y-88315000D01*
X155847440Y-87175000D01*
X155803162Y-86939683D01*
X155664090Y-86723559D01*
X155451890Y-86578569D01*
X155235000Y-86534648D01*
X155235000Y-86250000D01*
X155234871Y-86249350D01*
X155235162Y-85914833D01*
X155093117Y-85571057D01*
X154830327Y-85307808D01*
X154486799Y-85165162D01*
X154114833Y-85164838D01*
X153771057Y-85306883D01*
X153507808Y-85569673D01*
X153365162Y-85913201D01*
X153364838Y-86285167D01*
X153481946Y-86568590D01*
X153464683Y-86571838D01*
X153248559Y-86710910D01*
X153202031Y-86779006D01*
X153059698Y-86636673D01*
X152826309Y-86540000D01*
X152235750Y-86540000D01*
X152077000Y-86698750D01*
X152077000Y-87673000D01*
X152097000Y-87673000D01*
X152097000Y-87927000D01*
X152077000Y-87927000D01*
X152077000Y-87947000D01*
X151823000Y-87947000D01*
X151823000Y-87927000D01*
X151803000Y-87927000D01*
X151803000Y-87673000D01*
X151823000Y-87673000D01*
X151823000Y-86698750D01*
X151664250Y-86540000D01*
X151073691Y-86540000D01*
X150840302Y-86636673D01*
X150661673Y-86815301D01*
X150649315Y-86845136D01*
X150551890Y-86778569D01*
X150300000Y-86727560D01*
X150101851Y-86727560D01*
X151944411Y-84885000D01*
X166874842Y-84885000D01*
X171944921Y-89955079D01*
X171957834Y-89963707D01*
X171820330Y-90055585D01*
X171613539Y-90365069D01*
X171242036Y-89949268D01*
X170714791Y-89695291D01*
X170699026Y-89692642D01*
X170467000Y-89813783D01*
X170467000Y-91173000D01*
X170487000Y-91173000D01*
X170487000Y-91427000D01*
X170467000Y-91427000D01*
X170467000Y-92786217D01*
X170699026Y-92907358D01*
X170714791Y-92904709D01*
X171242036Y-92650732D01*
X171613539Y-92234931D01*
X171820330Y-92544415D01*
X172306511Y-92869271D01*
X172880000Y-92983345D01*
X173453489Y-92869271D01*
X173939670Y-92544415D01*
X174264526Y-92058234D01*
X174378600Y-91484745D01*
X174378600Y-91115255D01*
X174264526Y-90541766D01*
X174026142Y-90185000D01*
X174650000Y-90185000D01*
X174950407Y-90125245D01*
X175205079Y-89955079D01*
X175962718Y-89197440D01*
X177000000Y-89197440D01*
X177235317Y-89153162D01*
X177451441Y-89014090D01*
X177596431Y-88801890D01*
X177647440Y-88550000D01*
X177647440Y-87250000D01*
X177603162Y-87014683D01*
X177464090Y-86798559D01*
X177251890Y-86653569D01*
X177000000Y-86602560D01*
X175500000Y-86602560D01*
X175264683Y-86646838D01*
X175048559Y-86785910D01*
X174903569Y-86998110D01*
X174900919Y-87011197D01*
X174764090Y-86798559D01*
X174551890Y-86653569D01*
X174300000Y-86602560D01*
X174134560Y-86602560D01*
X174134560Y-86195366D01*
X174274215Y-86137662D01*
X174734406Y-85678273D01*
X174983766Y-85077747D01*
X174984334Y-84427506D01*
X174736022Y-83826545D01*
X174276633Y-83366354D01*
X173676107Y-83116994D01*
X173025866Y-83116426D01*
X172424905Y-83364738D01*
X171964714Y-83824127D01*
X171715354Y-84424653D01*
X171714786Y-85074894D01*
X171963098Y-85675855D01*
X172422487Y-86136046D01*
X172564560Y-86195040D01*
X172564560Y-86646917D01*
X172348559Y-86785910D01*
X172203569Y-86998110D01*
X172152560Y-87250000D01*
X172152560Y-87942402D01*
X168174674Y-83964516D01*
X168223341Y-83984724D01*
X168853893Y-83985275D01*
X169436657Y-83744481D01*
X169882914Y-83299003D01*
X170124724Y-82716659D01*
X170125275Y-82086107D01*
X169884481Y-81503343D01*
X169439003Y-81057086D01*
X168856659Y-80815276D01*
X168226107Y-80814725D01*
X168112022Y-80861864D01*
X166835000Y-79584842D01*
X166835000Y-79390854D01*
X167035317Y-79353162D01*
X167251441Y-79214090D01*
X167396431Y-79001890D01*
X167399081Y-78988803D01*
X167535910Y-79201441D01*
X167748110Y-79346431D01*
X168000000Y-79397440D01*
X169500000Y-79397440D01*
X169735317Y-79353162D01*
X169951441Y-79214090D01*
X170096431Y-79001890D01*
X170147440Y-78750000D01*
X170147440Y-78572494D01*
X171714786Y-78572494D01*
X171963098Y-79173455D01*
X172422487Y-79633646D01*
X173023013Y-79883006D01*
X173673254Y-79883574D01*
X174274215Y-79635262D01*
X174734406Y-79175873D01*
X174983766Y-78575347D01*
X174984334Y-77925106D01*
X174736022Y-77324145D01*
X174276633Y-76863954D01*
X173676107Y-76614594D01*
X173025866Y-76614026D01*
X172424905Y-76862338D01*
X171964714Y-77321727D01*
X171715354Y-77922253D01*
X171714786Y-78572494D01*
X170147440Y-78572494D01*
X170147440Y-77450000D01*
X170103162Y-77214683D01*
X169982691Y-77027467D01*
X170201478Y-76808680D01*
X170371644Y-76554007D01*
X170395216Y-76435508D01*
X170860000Y-76527959D01*
X171433489Y-76413885D01*
X171919670Y-76089029D01*
X172244526Y-75602848D01*
X172358600Y-75029359D01*
X172358600Y-74970641D01*
X172244526Y-74397152D01*
X171919670Y-73910971D01*
X171648828Y-73730000D01*
X171722782Y-73680585D01*
X173894813Y-73680585D01*
X174051621Y-74468913D01*
X174498173Y-75137225D01*
X175166485Y-75583777D01*
X175954813Y-75740585D01*
X176743141Y-75583777D01*
X177411453Y-75137225D01*
X177858005Y-74468913D01*
X178014813Y-73680585D01*
X177858005Y-72892257D01*
X177411453Y-72223945D01*
X176743141Y-71777393D01*
X175954813Y-71620585D01*
X175166485Y-71777393D01*
X174498173Y-72223945D01*
X174051621Y-72892257D01*
X173894813Y-73680585D01*
X171722782Y-73680585D01*
X171919670Y-73549029D01*
X172244526Y-73062848D01*
X172358600Y-72489359D01*
X172358600Y-72430641D01*
X172244526Y-71857152D01*
X171919670Y-71370971D01*
X171433489Y-71046115D01*
X170860000Y-70932041D01*
X170286511Y-71046115D01*
X169800330Y-71370971D01*
X169590000Y-71685752D01*
X169379670Y-71370971D01*
X168893489Y-71046115D01*
X168320000Y-70932041D01*
X167746511Y-71046115D01*
X167260330Y-71370971D01*
X167050000Y-71685752D01*
X166839670Y-71370971D01*
X166353489Y-71046115D01*
X165780000Y-70932041D01*
X165206511Y-71046115D01*
X164720330Y-71370971D01*
X164510000Y-71685752D01*
X164299670Y-71370971D01*
X163813489Y-71046115D01*
X163240000Y-70932041D01*
X162666511Y-71046115D01*
X162180330Y-71370971D01*
X161970000Y-71685752D01*
X161759670Y-71370971D01*
X161273489Y-71046115D01*
X160700000Y-70932041D01*
X160126511Y-71046115D01*
X159640330Y-71370971D01*
X159430000Y-71685752D01*
X159219670Y-71370971D01*
X158733489Y-71046115D01*
X158160000Y-70932041D01*
X157586511Y-71046115D01*
X157100330Y-71370971D01*
X156890000Y-71685752D01*
X156679670Y-71370971D01*
X156193489Y-71046115D01*
X155620000Y-70932041D01*
X155046511Y-71046115D01*
X154560330Y-71370971D01*
X154350000Y-71685752D01*
X154139670Y-71370971D01*
X153653489Y-71046115D01*
X153080000Y-70932041D01*
X152506511Y-71046115D01*
X152020330Y-71370971D01*
X151810000Y-71685752D01*
X151599670Y-71370971D01*
X151113489Y-71046115D01*
X150540000Y-70932041D01*
X149966511Y-71046115D01*
X149480330Y-71370971D01*
X149270000Y-71685752D01*
X149059670Y-71370971D01*
X148573489Y-71046115D01*
X148000000Y-70932041D01*
X147426511Y-71046115D01*
X146940330Y-71370971D01*
X146730000Y-71685752D01*
X146519670Y-71370971D01*
X146033489Y-71046115D01*
X145460000Y-70932041D01*
X144886511Y-71046115D01*
X144400330Y-71370971D01*
X144190000Y-71685752D01*
X143979670Y-71370971D01*
X143493489Y-71046115D01*
X142920000Y-70932041D01*
X142346511Y-71046115D01*
X141860330Y-71370971D01*
X141650000Y-71685752D01*
X141439670Y-71370971D01*
X140953489Y-71046115D01*
X140380000Y-70932041D01*
X139806511Y-71046115D01*
X139320330Y-71370971D01*
X139110000Y-71685752D01*
X138899670Y-71370971D01*
X138413489Y-71046115D01*
X137840000Y-70932041D01*
X137266511Y-71046115D01*
X136780330Y-71370971D01*
X136570000Y-71685752D01*
X136359670Y-71370971D01*
X135873489Y-71046115D01*
X135300000Y-70932041D01*
X134726511Y-71046115D01*
X134240330Y-71370971D01*
X134030000Y-71685752D01*
X133819670Y-71370971D01*
X133333489Y-71046115D01*
X132760000Y-70932041D01*
X132186511Y-71046115D01*
X131700330Y-71370971D01*
X131490000Y-71685752D01*
X131279670Y-71370971D01*
X130793489Y-71046115D01*
X130220000Y-70932041D01*
X129646511Y-71046115D01*
X129160330Y-71370971D01*
X128950000Y-71685752D01*
X128739670Y-71370971D01*
X128253489Y-71046115D01*
X127680000Y-70932041D01*
X127106511Y-71046115D01*
X126620330Y-71370971D01*
X126410000Y-71685752D01*
X126199670Y-71370971D01*
X125713489Y-71046115D01*
X125140000Y-70932041D01*
X124566511Y-71046115D01*
X124080330Y-71370971D01*
X123944002Y-71575000D01*
X123795998Y-71575000D01*
X123659670Y-71370971D01*
X123173489Y-71046115D01*
X122600000Y-70932041D01*
X122026511Y-71046115D01*
X121540330Y-71370971D01*
X121215474Y-71857152D01*
X121196654Y-71951767D01*
X120274210Y-72874210D01*
X120082367Y-73161325D01*
X120082367Y-73161326D01*
X120014999Y-73500000D01*
X120015000Y-73500005D01*
X120015000Y-75733421D01*
X117795860Y-77952560D01*
X116650000Y-77952560D01*
X116414683Y-77996838D01*
X116198559Y-78135910D01*
X116053569Y-78348110D01*
X116002560Y-78600000D01*
X116002560Y-80100000D01*
X116046838Y-80335317D01*
X116185910Y-80551441D01*
X116398110Y-80696431D01*
X116431490Y-80703191D01*
X116290301Y-80761673D01*
X116111673Y-80940302D01*
X116015000Y-81173691D01*
X116015000Y-81764250D01*
X116173750Y-81923000D01*
X117173000Y-81923000D01*
X117173000Y-81903000D01*
X117427000Y-81903000D01*
X117427000Y-81923000D01*
X118426250Y-81923000D01*
X118585000Y-81764250D01*
X118585000Y-81173691D01*
X118488327Y-80940302D01*
X118309699Y-80761673D01*
X118173713Y-80705346D01*
X118185317Y-80703162D01*
X118401441Y-80564090D01*
X118546431Y-80351890D01*
X118597440Y-80100000D01*
X118597440Y-79654140D01*
X118702560Y-79549020D01*
X118702560Y-80100000D01*
X118746838Y-80335317D01*
X118885910Y-80551441D01*
X119098110Y-80696431D01*
X119111197Y-80699081D01*
X118898559Y-80835910D01*
X118753569Y-81048110D01*
X118702560Y-81300000D01*
X118702560Y-82800000D01*
X118746838Y-83035317D01*
X118885910Y-83251441D01*
X119098110Y-83396431D01*
X119115000Y-83399851D01*
X119115000Y-83999995D01*
X119114999Y-84000000D01*
X119155906Y-84205649D01*
X119182367Y-84338675D01*
X119274364Y-84476359D01*
X119374210Y-84625790D01*
X119674208Y-84925787D01*
X119674210Y-84925790D01*
X119961325Y-85117633D01*
X120017516Y-85128810D01*
X120300000Y-85185001D01*
X120300005Y-85185000D01*
X121965000Y-85185000D01*
X121965000Y-85414250D01*
X122123750Y-85573000D01*
X123223000Y-85573000D01*
X123223000Y-85553000D01*
X123477000Y-85553000D01*
X123477000Y-85573000D01*
X123497000Y-85573000D01*
X123497000Y-85827000D01*
X123477000Y-85827000D01*
X123477000Y-86826250D01*
X123635750Y-86985000D01*
X124226309Y-86985000D01*
X124459698Y-86888327D01*
X124638327Y-86709699D01*
X124694654Y-86573713D01*
X124696838Y-86585317D01*
X124835910Y-86801441D01*
X125048110Y-86946431D01*
X125300000Y-86997440D01*
X125587282Y-86997440D01*
X129144932Y-90555090D01*
X129399604Y-90725256D01*
X129700011Y-90785011D01*
X134367731Y-90785011D01*
X136347720Y-92765000D01*
X136247000Y-92765000D01*
X136247000Y-94073000D01*
X136267000Y-94073000D01*
X136267000Y-94327000D01*
X136247000Y-94327000D01*
X136247000Y-94347000D01*
X135993000Y-94347000D01*
X135993000Y-94327000D01*
X134450085Y-94327000D01*
X134328096Y-94549039D01*
X134345633Y-94631819D01*
X134615500Y-95124896D01*
X135047707Y-95472493D01*
X134669352Y-95725302D01*
X134358283Y-96190849D01*
X134249050Y-96740000D01*
X134358283Y-97289151D01*
X134669352Y-97754698D01*
X135051438Y-98010000D01*
X134669352Y-98265302D01*
X134358283Y-98730849D01*
X134282368Y-99112499D01*
X131197434Y-102197434D01*
X130951397Y-102565654D01*
X130865000Y-103000000D01*
X130865000Y-112729867D01*
X130529868Y-113065000D01*
X129845434Y-113065000D01*
X129950648Y-112994698D01*
X130261717Y-112529151D01*
X130370950Y-111980000D01*
X130261717Y-111430849D01*
X129950648Y-110965302D01*
X129568562Y-110710000D01*
X129950648Y-110454698D01*
X130261717Y-109989151D01*
X130370950Y-109440000D01*
X130261717Y-108890849D01*
X129950648Y-108425302D01*
X129568562Y-108170000D01*
X129950648Y-107914698D01*
X130261717Y-107449151D01*
X130370950Y-106900000D01*
X130261717Y-106350849D01*
X129950648Y-105885302D01*
X129568562Y-105630000D01*
X129950648Y-105374698D01*
X130261717Y-104909151D01*
X130370950Y-104360000D01*
X130261717Y-103810849D01*
X129950648Y-103345302D01*
X129568562Y-103090000D01*
X129950648Y-102834698D01*
X130261717Y-102369151D01*
X130370950Y-101820000D01*
X130261717Y-101270849D01*
X129950648Y-100805302D01*
X129568562Y-100550000D01*
X129950648Y-100294698D01*
X130261717Y-99829151D01*
X130370950Y-99280000D01*
X130261717Y-98730849D01*
X129950648Y-98265302D01*
X129568562Y-98010000D01*
X129950648Y-97754698D01*
X130261717Y-97289151D01*
X130370950Y-96740000D01*
X130261717Y-96190849D01*
X129950648Y-95725302D01*
X129815502Y-95635000D01*
X129826309Y-95635000D01*
X130059698Y-95538327D01*
X130238327Y-95359699D01*
X130335000Y-95126310D01*
X130335000Y-94485750D01*
X130176250Y-94327000D01*
X128627000Y-94327000D01*
X128627000Y-94347000D01*
X128373000Y-94347000D01*
X128373000Y-94327000D01*
X126823750Y-94327000D01*
X126665000Y-94485750D01*
X126665000Y-95126310D01*
X126761673Y-95359699D01*
X126940302Y-95538327D01*
X127173691Y-95635000D01*
X127184498Y-95635000D01*
X127049352Y-95725302D01*
X126738283Y-96190849D01*
X126717992Y-96292860D01*
X126335000Y-95909868D01*
X126335000Y-93300000D01*
X126329767Y-93273690D01*
X126665000Y-93273690D01*
X126665000Y-93914250D01*
X126823750Y-94073000D01*
X128373000Y-94073000D01*
X128373000Y-92923750D01*
X128627000Y-92923750D01*
X128627000Y-94073000D01*
X130176250Y-94073000D01*
X130335000Y-93914250D01*
X130335000Y-93850961D01*
X134328096Y-93850961D01*
X134450085Y-94073000D01*
X135993000Y-94073000D01*
X135993000Y-92765000D01*
X135593000Y-92765000D01*
X135053517Y-92922834D01*
X134615500Y-93275104D01*
X134345633Y-93768181D01*
X134328096Y-93850961D01*
X130335000Y-93850961D01*
X130335000Y-93273690D01*
X130238327Y-93040301D01*
X130059698Y-92861673D01*
X129826309Y-92765000D01*
X128785750Y-92765000D01*
X128627000Y-92923750D01*
X128373000Y-92923750D01*
X128214250Y-92765000D01*
X127173691Y-92765000D01*
X126940302Y-92861673D01*
X126761673Y-93040301D01*
X126665000Y-93273690D01*
X126329767Y-93273690D01*
X126248604Y-92865655D01*
X126002566Y-92497434D01*
X123852565Y-90347433D01*
X123813650Y-90321431D01*
X123484345Y-90101396D01*
X123049999Y-90014999D01*
X121084900Y-90014999D01*
X121085326Y-89526695D01*
X120798957Y-88833628D01*
X120269161Y-88302907D01*
X119576595Y-88015328D01*
X118826695Y-88014674D01*
X118133628Y-88301043D01*
X117602907Y-88830839D01*
X117315328Y-89523405D01*
X117314674Y-90273305D01*
X117601043Y-90966372D01*
X118130839Y-91497093D01*
X118823405Y-91784672D01*
X119480112Y-91785245D01*
X119647433Y-91952566D01*
X120015654Y-92198603D01*
X120449999Y-92284999D01*
X122579867Y-92284999D01*
X124065000Y-93770132D01*
X124065000Y-96380000D01*
X124151397Y-96814346D01*
X124397434Y-97182566D01*
X126662368Y-99447500D01*
X126738283Y-99829151D01*
X127049352Y-100294698D01*
X127431438Y-100550000D01*
X127049352Y-100805302D01*
X126738283Y-101270849D01*
X126629050Y-101820000D01*
X126738283Y-102369151D01*
X127049352Y-102834698D01*
X127431438Y-103090000D01*
X127049352Y-103345302D01*
X126738283Y-103810849D01*
X126717992Y-103912860D01*
X126335000Y-103529868D01*
X126335000Y-101300000D01*
X126248603Y-100865654D01*
X126002566Y-100497434D01*
X120995787Y-95490655D01*
X121084672Y-95276595D01*
X121085326Y-94526695D01*
X120798957Y-93833628D01*
X120269161Y-93302907D01*
X119576595Y-93015328D01*
X118826695Y-93014674D01*
X118133628Y-93301043D01*
X117602907Y-93830839D01*
X117315328Y-94523405D01*
X117314674Y-95273305D01*
X117601043Y-95966372D01*
X118130839Y-96497093D01*
X118823405Y-96784672D01*
X119079764Y-96784896D01*
X121624394Y-99329526D01*
X121300000Y-99265000D01*
X120730449Y-99265000D01*
X120269161Y-98802907D01*
X119576595Y-98515328D01*
X118826695Y-98514674D01*
X118133628Y-98801043D01*
X117602907Y-99330839D01*
X117315328Y-100023405D01*
X117314674Y-100773305D01*
X117601043Y-101466372D01*
X118130839Y-101997093D01*
X118823405Y-102284672D01*
X119573305Y-102285326D01*
X120266372Y-101998957D01*
X120731139Y-101535000D01*
X120829868Y-101535000D01*
X121865000Y-102570132D01*
X121865000Y-106880000D01*
X121951397Y-107314346D01*
X122133959Y-107587569D01*
X122197434Y-107682566D01*
X126662368Y-112147500D01*
X126738283Y-112529151D01*
X127049352Y-112994698D01*
X127154566Y-113065000D01*
X122970132Y-113065000D01*
X121084757Y-111179625D01*
X121085326Y-110526695D01*
X120798957Y-109833628D01*
X120269161Y-109302907D01*
X119576595Y-109015328D01*
X118826695Y-109014674D01*
X118133628Y-109301043D01*
X117602907Y-109830839D01*
X117315328Y-110523405D01*
X117314674Y-111273305D01*
X117601043Y-111966372D01*
X118130839Y-112497093D01*
X118823405Y-112784672D01*
X119480113Y-112785245D01*
X121459868Y-114765000D01*
X120730449Y-114765000D01*
X120269161Y-114302907D01*
X119576595Y-114015328D01*
X118826695Y-114014674D01*
X118133628Y-114301043D01*
X117602907Y-114830839D01*
X117315328Y-115523405D01*
X117314674Y-116273305D01*
X117601043Y-116966372D01*
X118130839Y-117497093D01*
X118823405Y-117784672D01*
X119573305Y-117785326D01*
X120266372Y-117498957D01*
X120731139Y-117035000D01*
X132900000Y-117035000D01*
X133334346Y-116948603D01*
X133702566Y-116702566D01*
X134402566Y-116002567D01*
X134648603Y-115634346D01*
X134655354Y-115600406D01*
X134735000Y-115200000D01*
X134735000Y-113001002D01*
X135053517Y-113257166D01*
X135593000Y-113415000D01*
X135993000Y-113415000D01*
X135993000Y-112107000D01*
X135973000Y-112107000D01*
X135973000Y-111853000D01*
X135993000Y-111853000D01*
X135993000Y-111833000D01*
X136247000Y-111833000D01*
X136247000Y-111853000D01*
X136267000Y-111853000D01*
X136267000Y-112107000D01*
X136247000Y-112107000D01*
X136247000Y-113415000D01*
X136647000Y-113415000D01*
X137186483Y-113257166D01*
X137515000Y-112992960D01*
X137515000Y-115074842D01*
X133844920Y-118744922D01*
X133844918Y-118744925D01*
X133514127Y-119075716D01*
X132526326Y-118665546D01*
X131279146Y-118664457D01*
X130126485Y-119140727D01*
X129243826Y-120021847D01*
X128765546Y-121173674D01*
X128765053Y-121738308D01*
X128752560Y-121800000D01*
X128752560Y-125495585D01*
X127535000Y-125495585D01*
X127535000Y-124085750D01*
X127376250Y-123927000D01*
X126706608Y-123927000D01*
X126635882Y-123856274D01*
X126910884Y-123673000D01*
X127376250Y-123673000D01*
X127535000Y-123514250D01*
X127535000Y-122422819D01*
X127535294Y-122422108D01*
X127535000Y-121799577D01*
X127535000Y-121673690D01*
X127534940Y-121673546D01*
X127534705Y-121174928D01*
X127058564Y-120025421D01*
X126635880Y-119743725D01*
X125214605Y-121165000D01*
X124855395Y-121165000D01*
X126456275Y-119564120D01*
X126174579Y-119141436D01*
X125022108Y-118664706D01*
X123774928Y-118665295D01*
X122625421Y-119141436D01*
X122343725Y-119564120D01*
X123944605Y-121165000D01*
X123585395Y-121165000D01*
X122164120Y-119743725D01*
X121741436Y-120025421D01*
X121264706Y-121177892D01*
X121265000Y-121800000D01*
X121265000Y-123514250D01*
X121423750Y-123673000D01*
X121889116Y-123673000D01*
X122164118Y-123856274D01*
X122093392Y-123927000D01*
X121423750Y-123927000D01*
X121265000Y-124085750D01*
X121265000Y-125495585D01*
X117522280Y-125495585D01*
X116574038Y-125306968D01*
X115827350Y-124808048D01*
X115328430Y-124061362D01*
X115139813Y-123113118D01*
X115139813Y-122680585D01*
X115894813Y-122680585D01*
X116051621Y-123468913D01*
X116498173Y-124137225D01*
X117166485Y-124583777D01*
X117954813Y-124740585D01*
X118743141Y-124583777D01*
X119411453Y-124137225D01*
X119858005Y-123468913D01*
X120014813Y-122680585D01*
X119858005Y-121892257D01*
X119411453Y-121223945D01*
X118743141Y-120777393D01*
X117954813Y-120620585D01*
X117166485Y-120777393D01*
X116498173Y-121223945D01*
X116051621Y-121892257D01*
X115894813Y-122680585D01*
X115139813Y-122680585D01*
X115139813Y-105773305D01*
X117314674Y-105773305D01*
X117601043Y-106466372D01*
X118130839Y-106997093D01*
X118823405Y-107284672D01*
X119573305Y-107285326D01*
X120266372Y-106998957D01*
X120797093Y-106469161D01*
X121084672Y-105776595D01*
X121085326Y-105026695D01*
X120798957Y-104333628D01*
X120269161Y-103802907D01*
X119576595Y-103515328D01*
X118826695Y-103514674D01*
X118133628Y-103801043D01*
X117602907Y-104330839D01*
X117315328Y-105023405D01*
X117314674Y-105773305D01*
X115139813Y-105773305D01*
X115139813Y-85985750D01*
X121965000Y-85985750D01*
X121965000Y-86476310D01*
X122061673Y-86709699D01*
X122240302Y-86888327D01*
X122473691Y-86985000D01*
X123064250Y-86985000D01*
X123223000Y-86826250D01*
X123223000Y-85827000D01*
X122123750Y-85827000D01*
X121965000Y-85985750D01*
X115139813Y-85985750D01*
X115139813Y-82335750D01*
X116015000Y-82335750D01*
X116015000Y-82926309D01*
X116111673Y-83159698D01*
X116290301Y-83338327D01*
X116523690Y-83435000D01*
X117014250Y-83435000D01*
X117173000Y-83276250D01*
X117173000Y-82177000D01*
X117427000Y-82177000D01*
X117427000Y-83276250D01*
X117585750Y-83435000D01*
X118076310Y-83435000D01*
X118309699Y-83338327D01*
X118488327Y-83159698D01*
X118585000Y-82926309D01*
X118585000Y-82335750D01*
X118426250Y-82177000D01*
X117427000Y-82177000D01*
X117173000Y-82177000D01*
X116173750Y-82177000D01*
X116015000Y-82335750D01*
X115139813Y-82335750D01*
X115139813Y-73680585D01*
X115894824Y-73680585D01*
X116051632Y-74468913D01*
X116498184Y-75137225D01*
X117166496Y-75583777D01*
X117954824Y-75740585D01*
X118743152Y-75583777D01*
X119411464Y-75137225D01*
X119858016Y-74468913D01*
X120014824Y-73680585D01*
X119858016Y-72892257D01*
X119411464Y-72223945D01*
X118743152Y-71777393D01*
X117954824Y-71620585D01*
X117166496Y-71777393D01*
X116498184Y-72223945D01*
X116051632Y-72892257D01*
X115894824Y-73680585D01*
X115139813Y-73680585D01*
X115139813Y-73248052D01*
X115328430Y-72299808D01*
X115827350Y-71553122D01*
X116574038Y-71054202D01*
X117522280Y-70865585D01*
X176387346Y-70865585D01*
X177335590Y-71054202D01*
G36*
X148090087Y-94550087D02*
X148147939Y-94840926D01*
X148312686Y-95087488D01*
X148808317Y-95583119D01*
X148452771Y-95730028D01*
X147682732Y-96498724D01*
X147265476Y-97503588D01*
X147264526Y-98591638D01*
X147680028Y-99597229D01*
X148382124Y-100300552D01*
X147682732Y-100998724D01*
X147265476Y-102003588D01*
X147264526Y-103091638D01*
X147680028Y-104097229D01*
X148448724Y-104867268D01*
X149453588Y-105284524D01*
X150541638Y-105285474D01*
X151547229Y-104869972D01*
X152317268Y-104101276D01*
X152734524Y-103096412D01*
X152735474Y-102008362D01*
X152319972Y-101002771D01*
X151617876Y-100299448D01*
X152317268Y-99601276D01*
X152734524Y-98596412D01*
X152735474Y-97508362D01*
X152319972Y-96502771D01*
X151551276Y-95732732D01*
X150675314Y-95369001D01*
X150537401Y-95162599D01*
X150498579Y-95123777D01*
X150592192Y-95030327D01*
X150734838Y-94686799D01*
X150735162Y-94314833D01*
X150664897Y-94144779D01*
X150751441Y-94089090D01*
X150772748Y-94057906D01*
X164515000Y-107800158D01*
X164515000Y-117700000D01*
X164574755Y-118000407D01*
X164744921Y-118255079D01*
X166675716Y-120185874D01*
X166265546Y-121173674D01*
X166265053Y-121738308D01*
X166252560Y-121800000D01*
X166252560Y-125495585D01*
X165047440Y-125495585D01*
X165047440Y-121800000D01*
X165035058Y-121734197D01*
X165035543Y-121179146D01*
X164559273Y-120026485D01*
X163678153Y-119143826D01*
X162526326Y-118665546D01*
X161279146Y-118664457D01*
X160126485Y-119140727D01*
X159243826Y-120021847D01*
X158765546Y-121173674D01*
X158765053Y-121738308D01*
X158752560Y-121800000D01*
X158752560Y-125495585D01*
X157547440Y-125495585D01*
X157547440Y-121800000D01*
X157535058Y-121734197D01*
X157535543Y-121179146D01*
X157059273Y-120026485D01*
X156178153Y-119143826D01*
X155026326Y-118665546D01*
X153779146Y-118664457D01*
X152626485Y-119140727D01*
X151743826Y-120021847D01*
X151265546Y-121173674D01*
X151265053Y-121738308D01*
X151252560Y-121800000D01*
X151252560Y-125495585D01*
X150047440Y-125495585D01*
X150047440Y-121800000D01*
X150035058Y-121734197D01*
X150035543Y-121179146D01*
X149559273Y-120026485D01*
X148678153Y-119143826D01*
X147526326Y-118665546D01*
X146279146Y-118664457D01*
X145285274Y-119075116D01*
X142510121Y-116299963D01*
X142973184Y-116488367D01*
X144061214Y-116481525D01*
X145034642Y-116078318D01*
X145267600Y-115697205D01*
X143500000Y-113929605D01*
X143485858Y-113943748D01*
X143306253Y-113764143D01*
X143320395Y-113750000D01*
X143679605Y-113750000D01*
X145447205Y-115517600D01*
X145828318Y-115284642D01*
X146238367Y-114276816D01*
X146231525Y-113188786D01*
X145828318Y-112215358D01*
X145447205Y-111982400D01*
X143679605Y-113750000D01*
X143320395Y-113750000D01*
X141552795Y-111982400D01*
X141185000Y-112207217D01*
X141185000Y-111197205D01*
X141732400Y-111197205D01*
X141917486Y-111500000D01*
X141732400Y-111802795D01*
X143500000Y-113570395D01*
X145267600Y-111802795D01*
X145082514Y-111500000D01*
X145267600Y-111197205D01*
X143500000Y-109429605D01*
X141732400Y-111197205D01*
X141185000Y-111197205D01*
X141185000Y-110792783D01*
X141552795Y-111017600D01*
X143320395Y-109250000D01*
X143679605Y-109250000D01*
X145447205Y-111017600D01*
X145828318Y-110784642D01*
X146232336Y-109791638D01*
X147364526Y-109791638D01*
X147780028Y-110797229D01*
X148482124Y-111500552D01*
X147782732Y-112198724D01*
X147365476Y-113203588D01*
X147364526Y-114291638D01*
X147780028Y-115297229D01*
X148548724Y-116067268D01*
X149553588Y-116484524D01*
X150641638Y-116485474D01*
X151647229Y-116069972D01*
X152417268Y-115301276D01*
X152834524Y-114296412D01*
X152835474Y-113208362D01*
X152419972Y-112202771D01*
X151717876Y-111499448D01*
X152417268Y-110801276D01*
X152834524Y-109796412D01*
X152835474Y-108708362D01*
X152419972Y-107702771D01*
X151651276Y-106932732D01*
X150646412Y-106515476D01*
X149558362Y-106514526D01*
X148552771Y-106930028D01*
X147782732Y-107698724D01*
X147365476Y-108703588D01*
X147364526Y-109791638D01*
X146232336Y-109791638D01*
X146238367Y-109776816D01*
X146231525Y-108688786D01*
X145828318Y-107715358D01*
X145447205Y-107482400D01*
X143679605Y-109250000D01*
X143320395Y-109250000D01*
X141552795Y-107482400D01*
X141185000Y-107707217D01*
X141185000Y-107302795D01*
X141732400Y-107302795D01*
X143500000Y-109070395D01*
X145267600Y-107302795D01*
X145034642Y-106921682D01*
X144026816Y-106511633D01*
X142938786Y-106518475D01*
X141965358Y-106921682D01*
X141732400Y-107302795D01*
X141185000Y-107302795D01*
X141185000Y-103625225D01*
X141380028Y-104097229D01*
X142148724Y-104867268D01*
X143153588Y-105284524D01*
X144241638Y-105285474D01*
X145247229Y-104869972D01*
X146017268Y-104101276D01*
X146434524Y-103096412D01*
X146435474Y-102008362D01*
X146019972Y-101002771D01*
X145317876Y-100299448D01*
X146017268Y-99601276D01*
X146434524Y-98596412D01*
X146435474Y-97508362D01*
X146108289Y-96716513D01*
X147387401Y-95437401D01*
X147552148Y-95190839D01*
X147610000Y-94900000D01*
X147610000Y-92964802D01*
X148090087Y-92484715D01*
X148090087Y-94550087D01*
X148090087Y-94550087D01*
G37*
X148090087Y-94550087D02*
X148147939Y-94840926D01*
X148312686Y-95087488D01*
X148808317Y-95583119D01*
X148452771Y-95730028D01*
X147682732Y-96498724D01*
X147265476Y-97503588D01*
X147264526Y-98591638D01*
X147680028Y-99597229D01*
X148382124Y-100300552D01*
X147682732Y-100998724D01*
X147265476Y-102003588D01*
X147264526Y-103091638D01*
X147680028Y-104097229D01*
X148448724Y-104867268D01*
X149453588Y-105284524D01*
X150541638Y-105285474D01*
X151547229Y-104869972D01*
X152317268Y-104101276D01*
X152734524Y-103096412D01*
X152735474Y-102008362D01*
X152319972Y-101002771D01*
X151617876Y-100299448D01*
X152317268Y-99601276D01*
X152734524Y-98596412D01*
X152735474Y-97508362D01*
X152319972Y-96502771D01*
X151551276Y-95732732D01*
X150675314Y-95369001D01*
X150537401Y-95162599D01*
X150498579Y-95123777D01*
X150592192Y-95030327D01*
X150734838Y-94686799D01*
X150735162Y-94314833D01*
X150664897Y-94144779D01*
X150751441Y-94089090D01*
X150772748Y-94057906D01*
X164515000Y-107800158D01*
X164515000Y-117700000D01*
X164574755Y-118000407D01*
X164744921Y-118255079D01*
X166675716Y-120185874D01*
X166265546Y-121173674D01*
X166265053Y-121738308D01*
X166252560Y-121800000D01*
X166252560Y-125495585D01*
X165047440Y-125495585D01*
X165047440Y-121800000D01*
X165035058Y-121734197D01*
X165035543Y-121179146D01*
X164559273Y-120026485D01*
X163678153Y-119143826D01*
X162526326Y-118665546D01*
X161279146Y-118664457D01*
X160126485Y-119140727D01*
X159243826Y-120021847D01*
X158765546Y-121173674D01*
X158765053Y-121738308D01*
X158752560Y-121800000D01*
X158752560Y-125495585D01*
X157547440Y-125495585D01*
X157547440Y-121800000D01*
X157535058Y-121734197D01*
X157535543Y-121179146D01*
X157059273Y-120026485D01*
X156178153Y-119143826D01*
X155026326Y-118665546D01*
X153779146Y-118664457D01*
X152626485Y-119140727D01*
X151743826Y-120021847D01*
X151265546Y-121173674D01*
X151265053Y-121738308D01*
X151252560Y-121800000D01*
X151252560Y-125495585D01*
X150047440Y-125495585D01*
X150047440Y-121800000D01*
X150035058Y-121734197D01*
X150035543Y-121179146D01*
X149559273Y-120026485D01*
X148678153Y-119143826D01*
X147526326Y-118665546D01*
X146279146Y-118664457D01*
X145285274Y-119075116D01*
X142510121Y-116299963D01*
X142973184Y-116488367D01*
X144061214Y-116481525D01*
X145034642Y-116078318D01*
X145267600Y-115697205D01*
X143500000Y-113929605D01*
X143485858Y-113943748D01*
X143306253Y-113764143D01*
X143320395Y-113750000D01*
X143679605Y-113750000D01*
X145447205Y-115517600D01*
X145828318Y-115284642D01*
X146238367Y-114276816D01*
X146231525Y-113188786D01*
X145828318Y-112215358D01*
X145447205Y-111982400D01*
X143679605Y-113750000D01*
X143320395Y-113750000D01*
X141552795Y-111982400D01*
X141185000Y-112207217D01*
X141185000Y-111197205D01*
X141732400Y-111197205D01*
X141917486Y-111500000D01*
X141732400Y-111802795D01*
X143500000Y-113570395D01*
X145267600Y-111802795D01*
X145082514Y-111500000D01*
X145267600Y-111197205D01*
X143500000Y-109429605D01*
X141732400Y-111197205D01*
X141185000Y-111197205D01*
X141185000Y-110792783D01*
X141552795Y-111017600D01*
X143320395Y-109250000D01*
X143679605Y-109250000D01*
X145447205Y-111017600D01*
X145828318Y-110784642D01*
X146232336Y-109791638D01*
X147364526Y-109791638D01*
X147780028Y-110797229D01*
X148482124Y-111500552D01*
X147782732Y-112198724D01*
X147365476Y-113203588D01*
X147364526Y-114291638D01*
X147780028Y-115297229D01*
X148548724Y-116067268D01*
X149553588Y-116484524D01*
X150641638Y-116485474D01*
X151647229Y-116069972D01*
X152417268Y-115301276D01*
X152834524Y-114296412D01*
X152835474Y-113208362D01*
X152419972Y-112202771D01*
X151717876Y-111499448D01*
X152417268Y-110801276D01*
X152834524Y-109796412D01*
X152835474Y-108708362D01*
X152419972Y-107702771D01*
X151651276Y-106932732D01*
X150646412Y-106515476D01*
X149558362Y-106514526D01*
X148552771Y-106930028D01*
X147782732Y-107698724D01*
X147365476Y-108703588D01*
X147364526Y-109791638D01*
X146232336Y-109791638D01*
X146238367Y-109776816D01*
X146231525Y-108688786D01*
X145828318Y-107715358D01*
X145447205Y-107482400D01*
X143679605Y-109250000D01*
X143320395Y-109250000D01*
X141552795Y-107482400D01*
X141185000Y-107707217D01*
X141185000Y-107302795D01*
X141732400Y-107302795D01*
X143500000Y-109070395D01*
X145267600Y-107302795D01*
X145034642Y-106921682D01*
X144026816Y-106511633D01*
X142938786Y-106518475D01*
X141965358Y-106921682D01*
X141732400Y-107302795D01*
X141185000Y-107302795D01*
X141185000Y-103625225D01*
X141380028Y-104097229D01*
X142148724Y-104867268D01*
X143153588Y-105284524D01*
X144241638Y-105285474D01*
X145247229Y-104869972D01*
X146017268Y-104101276D01*
X146434524Y-103096412D01*
X146435474Y-102008362D01*
X146019972Y-101002771D01*
X145317876Y-100299448D01*
X146017268Y-99601276D01*
X146434524Y-98596412D01*
X146435474Y-97508362D01*
X146108289Y-96716513D01*
X147387401Y-95437401D01*
X147552148Y-95190839D01*
X147610000Y-94900000D01*
X147610000Y-92964802D01*
X148090087Y-92484715D01*
X148090087Y-94550087D01*
G36*
X126915000Y-83699995D02*
X126914999Y-83700000D01*
X126960781Y-83930156D01*
X126982367Y-84038675D01*
X127093935Y-84205649D01*
X127174210Y-84325790D01*
X127625661Y-84777241D01*
X127565000Y-84923690D01*
X127565000Y-85414250D01*
X127723750Y-85573000D01*
X128823000Y-85573000D01*
X128823000Y-85553000D01*
X129077000Y-85553000D01*
X129077000Y-85573000D01*
X129097000Y-85573000D01*
X129097000Y-85827000D01*
X129077000Y-85827000D01*
X129077000Y-86826250D01*
X129235750Y-86985000D01*
X129794840Y-86985000D01*
X131564919Y-88755079D01*
X131819591Y-88925245D01*
X132119998Y-88985000D01*
X134274842Y-88985000D01*
X134504853Y-89215011D01*
X130025169Y-89215011D01*
X127399061Y-86588903D01*
X127447440Y-86350000D01*
X127447440Y-85985750D01*
X127565000Y-85985750D01*
X127565000Y-86476310D01*
X127661673Y-86709699D01*
X127840302Y-86888327D01*
X128073691Y-86985000D01*
X128664250Y-86985000D01*
X128823000Y-86826250D01*
X128823000Y-85827000D01*
X127723750Y-85827000D01*
X127565000Y-85985750D01*
X127447440Y-85985750D01*
X127447440Y-85050000D01*
X127403162Y-84814683D01*
X127264090Y-84598559D01*
X127051890Y-84453569D01*
X126800000Y-84402560D01*
X126725000Y-84402560D01*
X126725000Y-83667981D01*
X126915000Y-83383626D01*
X126915000Y-83699995D01*
X126915000Y-83699995D01*
G37*
X126915000Y-83699995D02*
X126914999Y-83700000D01*
X126960781Y-83930156D01*
X126982367Y-84038675D01*
X127093935Y-84205649D01*
X127174210Y-84325790D01*
X127625661Y-84777241D01*
X127565000Y-84923690D01*
X127565000Y-85414250D01*
X127723750Y-85573000D01*
X128823000Y-85573000D01*
X128823000Y-85553000D01*
X129077000Y-85553000D01*
X129077000Y-85573000D01*
X129097000Y-85573000D01*
X129097000Y-85827000D01*
X129077000Y-85827000D01*
X129077000Y-86826250D01*
X129235750Y-86985000D01*
X129794840Y-86985000D01*
X131564919Y-88755079D01*
X131819591Y-88925245D01*
X132119998Y-88985000D01*
X134274842Y-88985000D01*
X134504853Y-89215011D01*
X130025169Y-89215011D01*
X127399061Y-86588903D01*
X127447440Y-86350000D01*
X127447440Y-85985750D01*
X127565000Y-85985750D01*
X127565000Y-86476310D01*
X127661673Y-86709699D01*
X127840302Y-86888327D01*
X128073691Y-86985000D01*
X128664250Y-86985000D01*
X128823000Y-86826250D01*
X128823000Y-85827000D01*
X127723750Y-85827000D01*
X127565000Y-85985750D01*
X127447440Y-85985750D01*
X127447440Y-85050000D01*
X127403162Y-84814683D01*
X127264090Y-84598559D01*
X127051890Y-84453569D01*
X126800000Y-84402560D01*
X126725000Y-84402560D01*
X126725000Y-83667981D01*
X126915000Y-83383626D01*
X126915000Y-83699995D01*
M02*
