G04 #@! TF.FileFunction,Paste,Top*
%FSLAX46Y46*%
G04 Gerber Fmt 4.6, Leading zero omitted, Abs format (unit mm)*
G04 Created by KiCad (PCBNEW 4.0.7) date 09/24/17 15:20:56*
%MOMM*%
%LPD*%
G01*
G04 APERTURE LIST*
%ADD10C,0.100000*%
%ADD11R,1.500000X1.250000*%
%ADD12R,1.300000X1.500000*%
%ADD13R,1.500000X1.300000*%
%ADD14R,1.000000X0.400000*%
G04 APERTURE END LIST*
D10*
D11*
X139350000Y-87800000D03*
X141850000Y-87800000D03*
X151950000Y-87800000D03*
X154450000Y-87800000D03*
D12*
X117300000Y-82050000D03*
X117300000Y-79350000D03*
X120000000Y-79350000D03*
X120000000Y-82050000D03*
D13*
X166050000Y-78100000D03*
X168750000Y-78100000D03*
X150750000Y-78100000D03*
X153450000Y-78100000D03*
X158350000Y-78100000D03*
X161050000Y-78100000D03*
X176250000Y-87900000D03*
X173550000Y-87900000D03*
X123350000Y-85700000D03*
X126050000Y-85700000D03*
X123250000Y-78800000D03*
X125950000Y-78800000D03*
X128950000Y-85700000D03*
X131650000Y-85700000D03*
X128950000Y-78800000D03*
X131650000Y-78800000D03*
D14*
X144000000Y-87575000D03*
X144000000Y-88225000D03*
X144000000Y-88875000D03*
X144000000Y-89525000D03*
X144000000Y-90175000D03*
X144000000Y-90825000D03*
X144000000Y-91475000D03*
X144000000Y-92125000D03*
X144000000Y-92775000D03*
X144000000Y-93425000D03*
X149800000Y-93425000D03*
X149800000Y-92775000D03*
X149800000Y-92125000D03*
X149800000Y-91475000D03*
X149800000Y-90825000D03*
X149800000Y-90175000D03*
X149800000Y-89525000D03*
X149800000Y-88875000D03*
X149800000Y-88225000D03*
X149800000Y-87575000D03*
M02*
